<svg xmlns="http://www.w3.org/2000/svg" xmlns:xlink="http://www.w3.org/1999/xlink" viewBox="0 0 200 100" xmlns:v="https://vecta.io/nano"><g fill="#231f20"><path d="M121.5 41.8h12.9v-1.5h-9l.1-6.3h-4v7.8M47.6 34v7.8h3.9v-3.2h6.8v3.2h3.9V34h-3.9v3.2h-6.8V34h-3.9"/><path d="M96.7 34L93 37.3 89.3 34l-4.6-.3v.3l5.6 4.6v3.2h3.9v-3.2l5.1-4.6v-.3l-2.6.3m42 7.8h13.1v-1.3h-9.2v-2h8.8v-1.3h-8.8v-1.9h9V34h-12.9v7.8"/><path d="M102.6 36c0 1.8 2.1 2.2 4.9 2.6 2.9.4 4.3.5 4.3 1.1s-.9.9-3.4.9c-2.8 0-5.2-.7-5.6-.8 0 .1-.3.9-.4 1.3v.3c.4.1 2.6.6 6.1.6 3.8 0 7.4-.7 7.4-2.7 0-1.4-1.5-2.1-5.7-2.6-1.7-.2-3.6-.3-3.6-1 0-.5.5-.7 3-.7s4.5.5 4.9.6l.3-1.8c-.4-.1-2.9-.2-6.1-.2-2.6 0-6.1.4-6.1 2.4m-73.8 1.9c0 2.5 2.7 4.2 8.2 4.2 2.1 0 4.4-.3 4.8-.4l.3-1.9c-.5 0-2.3.6-4.3.6-3.1 0-5.1-.7-5.1-2.6 0-1.8 2-2.6 5.2-2.6 1.8 0 3.7.3 4.2.3v-.3l-.4-1.2c-.6-.1-2.5-.4-4.6-.4-5.6.1-8.3 1.7-8.3 4.3"/><path d="M68.3 41.8h3.9v-6.4l2.1-.1 2.2.1c1.2.2 1.6.6 1.6 1.1s-.5 1-1.7 1.2c-.8.1-1.3.1-2 .1-.3 0-1.2-.3-1.2-.3v.3l4.5 4h5v-.3l-4.7-3c.9-.1 1.2-.1 2.1-.4 1.2-.4 1.8-1 1.8-1.7 0-.9-.6-1.7-2.8-2.2-1.2-.3-2.8-.4-4.8-.4l-6 .1v7.9m88.7 0h3.9v-6.4l2.1-.1 2.2.1c1.2.2 1.6.6 1.6 1.1s-.5 1-1.7 1.2c-.8.1-1.3.1-2 .1-.4 0-1.2-.3-1.2-.3v.3l4.5 4h5v-.3l-4.5-2.9c.9-.1 1.2-.1 2.1-.4 1.2-.4 1.8-1 1.8-1.7 0-.9-.6-1.7-2.8-2.2-1.2-.3-2.8-.4-4.8-.4l-6 .1c-.2 0-.2 7.8-.2 7.8"/></g><linearGradient id="A" gradientUnits="userSpaceOnUse" x1="127.943" y1="41.041" x2="127.943" y2="33.739"><stop offset="0" stop-color="#fff"/><stop offset=".253" stop-color="#1e1e1e"/><stop offset=".663" stop-color="#c7c7c7"/></linearGradient><path d="M121.5 41h12.9v-1.3h-9l.1-6h-4V41" fill="url(#A)"/><linearGradient id="B" gradientUnits="userSpaceOnUse" x1="54.904" y1="41.041" x2="54.904" y2="33.739"><stop offset="0" stop-color="#fff"/><stop offset=".253" stop-color="#1e1e1e"/><stop offset=".663" stop-color="#c7c7c7"/></linearGradient><path d="M47.6 33.7V41h3.9v-3h6.8v3h3.9v-7.3h-3.9v3h-6.8v-3h-3.9" fill="url(#B)"/><linearGradient id="C" gradientUnits="userSpaceOnUse" x1="92.011" y1="41.041" x2="92.011" y2="33.714"><stop offset="0" stop-color="#fff"/><stop offset=".253" stop-color="#1e1e1e"/><stop offset=".663" stop-color="#c7c7c7"/></linearGradient><path d="M96.7 33.7L93 36.8l-3.8-3.1h-4.5l5.5 4.4v3h3.9v-3l5.1-4.3-2.5-.1" fill="url(#C)"/><linearGradient id="D" gradientUnits="userSpaceOnUse" x1="145.252" y1="41.041" x2="145.252" y2="33.739"><stop offset="0" stop-color="#fff"/><stop offset=".253" stop-color="#1e1e1e"/><stop offset=".663" stop-color="#c7c7c7"/></linearGradient><path d="M138.7 41h13.1v-1.2h-9.2v-1.9h8.8v-1.2h-8.8V35h9v-1.3h-12.9V41" fill="url(#D)"/><linearGradient id="E" gradientUnits="userSpaceOnUse" x1="109.23" y1="41.352" x2="109.23" y2="33.403"><stop offset="0" stop-color="#fff"/><stop offset=".253" stop-color="#1e1e1e"/><stop offset=".663" stop-color="#c7c7c7"/></linearGradient><path d="M102.6 35.6c0 1.7 2.1 2.1 4.9 2.4 2.9.3 4.3.4 4.3 1.1 0 .6-.9.9-3.4.9-2.8 0-5.2-.7-5.6-.7 0 .1-.4 2-.4 2 .4.1 2.6.1 6.1.1 3.8 0 7.4-.6 7.4-2.5 0-1.3-1.5-2-5.7-2.4-1.7-.2-3.6-.3-3.6-.9 0-.5.5-.7 3-.7s4.5.5 4.9.6l.3-1.4c-.4-.1-2.9-.5-6.1-.5-2.6-.2-6.1.2-6.1 2" fill="url(#E)"/><linearGradient id="F" gradientUnits="userSpaceOnUse" x1="35.438" y1="41.352" x2="35.438" y2="33.42"><stop offset="0" stop-color="#fff"/><stop offset=".253" stop-color="#1e1e1e"/><stop offset=".663" stop-color="#c7c7c7"/></linearGradient><path d="M28.8 37.4c0 2.4 2.7 4 8.2 4 2.1 0 4.4-.3 4.8-.3l.3-1.2v-.3c-.5 0-2.3.3-4.3.3-3.1 0-5.1-.7-5.1-2.4s2-2.4 5.2-2.4c1.8 0 3.7.2 4.2.3l-.3-1.5c-.6-.1-2.5-.3-4.6-.3-5.7-.2-8.4 1.4-8.4 3.8" fill="url(#F)"/><linearGradient id="G" gradientUnits="userSpaceOnUse" x1="75.422" y1="41.491" x2="75.422" y2="33.632"><stop offset="0" stop-color="#fff"/><stop offset=".253" stop-color="#1e1e1e"/><stop offset=".663" stop-color="#c7c7c7"/></linearGradient><path d="M68.3 41h3.9v-6l2.1-.1 2.2.1c1.2.2 1.6.5 1.6 1s-.5.9-1.7 1.1c-.8.1-1.3.1-2 .1h-1.2v.2l4.5 3.6 5 .4V41L78 38c.9 0 1.2-.1 2.1-.4 1.2-.4 1.8-.9 1.8-1.6 0-.9-.6-1.6-2.8-2-1.2-.3-2.8-.4-4.8-.4l-6 .1V41" fill="url(#G)"/><linearGradient id="H" gradientUnits="userSpaceOnUse" x1="164.083" y1="41.491" x2="164.083" y2="33.632"><stop offset="0" stop-color="#fff"/><stop offset=".253" stop-color="#1e1e1e"/><stop offset=".663" stop-color="#c7c7c7"/></linearGradient><path d="M157 41h3.9v-6l2.1-.1 2.2.1c1.2.2 1.6.5 1.6 1s-.5.9-1.7 1.1c-.8.1-1.3.1-2 .1h-1.2v.2l4.5 3.6 5 .4V41l-4.5-3c.9 0 1.2-.1 2.1-.4 1.2-.4 1.8-.9 1.8-1.6 0-.9-.6-1.6-2.8-2-1.2-.3-2.8-.4-4.8-.4l-6 .1c-.2.1-.2 7.3-.2 7.3" fill="url(#H)"/><linearGradient id="I" gradientUnits="userSpaceOnUse" x1="127.943" y1="41.483" x2="127.943" y2="33.682"><stop offset=".028" stop-color="#3c3c3c"/><stop offset=".062" stop-color="#2d2d2d"/><stop offset=".236" stop-color="#787878"/><stop offset=".343" stop-color="#a1a1a1"/><stop offset=".579" stop-color="#fff"/><stop offset=".781" stop-color="#e9e9e9"/><stop offset=".91" stop-color="#ccc"/><stop offset="1" stop-color="#8b8b8b"/></linearGradient><path d="M121.5 41.5h12.9V40h-9l.1-6.3h-4v7.8" fill="url(#I)"/><linearGradient id="J" gradientUnits="userSpaceOnUse" x1="54.904" y1="41.483" x2="54.904" y2="33.682"><stop offset=".028" stop-color="#3c3c3c"/><stop offset=".062" stop-color="#2d2d2d"/><stop offset=".236" stop-color="#787878"/><stop offset=".343" stop-color="#a1a1a1"/><stop offset=".579" stop-color="#fff"/><stop offset=".781" stop-color="#e9e9e9"/><stop offset=".91" stop-color="#ccc"/><stop offset="1" stop-color="#8b8b8b"/></linearGradient><path d="M47.6 33.7v7.8h3.9v-3.2h6.8v3.2h3.9v-7.8h-3.9v3.2h-6.8v-3.2h-3.9" fill="url(#J)"/><linearGradient id="K" gradientUnits="userSpaceOnUse" x1="92.015" y1="41.483" x2="92.015" y2="33.682"><stop offset=".028" stop-color="#3c3c3c"/><stop offset=".062" stop-color="#2d2d2d"/><stop offset=".236" stop-color="#787878"/><stop offset=".343" stop-color="#a1a1a1"/><stop offset=".579" stop-color="#fff"/><stop offset=".781" stop-color="#e9e9e9"/><stop offset=".91" stop-color="#ccc"/><stop offset="1" stop-color="#8b8b8b"/></linearGradient><path d="M96.7 33.7L93 37l-3.8-3.3h-4.6l5.6 4.6v3.2h3.9v-3.2l5.1-4.6h-2.5" fill="url(#K)"/><linearGradient id="L" gradientUnits="userSpaceOnUse" x1="145.252" y1="41.483" x2="145.252" y2="33.682"><stop offset=".028" stop-color="#3c3c3c"/><stop offset=".062" stop-color="#2d2d2d"/><stop offset=".236" stop-color="#787878"/><stop offset=".343" stop-color="#a1a1a1"/><stop offset=".579" stop-color="#fff"/><stop offset=".781" stop-color="#e9e9e9"/><stop offset=".91" stop-color="#ccc"/><stop offset="1" stop-color="#8b8b8b"/></linearGradient><path d="M138.7 41.5h13.1v-1.3h-9.2v-2h8.8v-1.3h-8.8V35h9v-1.3h-12.9v7.8" fill="url(#L)"/><linearGradient id="M" gradientUnits="userSpaceOnUse" x1="109.23" y1="41.818" x2="109.23" y2="33.329"><stop offset=".028" stop-color="#3c3c3c"/><stop offset=".062" stop-color="#2d2d2d"/><stop offset=".236" stop-color="#787878"/><stop offset=".343" stop-color="#a1a1a1"/><stop offset=".579" stop-color="#fff"/><stop offset=".781" stop-color="#e9e9e9"/><stop offset=".91" stop-color="#ccc"/><stop offset="1" stop-color="#8b8b8b"/></linearGradient><path d="M102.6 35.7c0 1.8 2.1 2.2 4.9 2.6 2.9.4 4.3.5 4.3 1.1s-.9.9-3.4.9c-2.8 0-5.2-.7-5.6-.8 0 .1-.4 1.6-.4 1.6.4.1 2.6.6 6.1.6 3.8 0 7.4-.7 7.4-2.7 0-1.4-1.5-2.1-5.7-2.6-1.7-.2-3.6-.3-3.6-1 0-.5.5-.7 3-.7s4.5.5 4.9.6l.3-1.5c-.4-.1-2.9-.5-6.1-.5-2.6 0-6.1.4-6.1 2.4" fill="url(#M)"/><linearGradient id="N" gradientUnits="userSpaceOnUse" x1="35.438" y1="41.818" x2="35.438" y2="33.349"><stop offset=".028" stop-color="#3c3c3c"/><stop offset=".062" stop-color="#2d2d2d"/><stop offset=".236" stop-color="#787878"/><stop offset=".343" stop-color="#a1a1a1"/><stop offset=".579" stop-color="#fff"/><stop offset=".781" stop-color="#e9e9e9"/><stop offset=".91" stop-color="#ccc"/><stop offset="1" stop-color="#8b8b8b"/></linearGradient><path d="M28.8 37.6c0 2.5 2.7 4.2 8.2 4.2 2.1 0 4.4-.3 4.8-.4l.3-1.6c-.5 0-2.3.3-4.3.3-3.1 0-5.1-.7-5.1-2.6 0-1.8 2-2.6 5.2-2.6 1.8 0 3.7.3 4.2.3l-.3-1.6c-.6-.1-2.5-.4-4.6-.4-5.7.2-8.4 1.8-8.4 4.4" fill="url(#N)"/><linearGradient id="O" gradientUnits="userSpaceOnUse" x1="75.422" y1="41.483" x2="75.422" y2="33.561"><stop offset=".028" stop-color="#3c3c3c"/><stop offset=".062" stop-color="#2d2d2d"/><stop offset=".236" stop-color="#787878"/><stop offset=".343" stop-color="#a1a1a1"/><stop offset=".579" stop-color="#fff"/><stop offset=".781" stop-color="#e9e9e9"/><stop offset=".91" stop-color="#ccc"/><stop offset="1" stop-color="#8b8b8b"/></linearGradient><path d="M68.3 41.5h3.9v-6.4l2.1-.1 2.2.1c1.2.2 1.6.6 1.6 1.1s-.5 1-1.7 1.2c-.8.1-1.3.1-2 .1h-1.2l4.5 4h5L78 38.2c.9-.1 1.2-.1 2.1-.4 1.2-.4 1.8-1 1.8-1.7 0-.9-.6-1.7-2.8-2.2-1.2-.3-2.8-.4-4.8-.4l-6 .1v7.9" fill="url(#O)"/><linearGradient id="P" gradientUnits="userSpaceOnUse" x1="164.083" y1="41.483" x2="164.083" y2="33.561"><stop offset=".028" stop-color="#3c3c3c"/><stop offset=".062" stop-color="#2d2d2d"/><stop offset=".236" stop-color="#787878"/><stop offset=".343" stop-color="#a1a1a1"/><stop offset=".579" stop-color="#fff"/><stop offset=".781" stop-color="#e9e9e9"/><stop offset=".91" stop-color="#ccc"/><stop offset="1" stop-color="#8b8b8b"/></linearGradient><path d="M157 41.5h3.9v-6.4l2.1-.1 2.2.1c1.2.2 1.6.6 1.6 1.1s-.5 1-1.7 1.2c-.8.1-1.3.1-2 .1h-1.2l4.5 4h5l-4.5-3.2c.9-.1 1.2-.1 2.1-.4 1.2-.4 1.8-1 1.8-1.7 0-.9-.6-1.7-2.8-2.2-1.2-.3-2.8-.4-4.8-.4l-6 .1c-.2 0-.2 7.8-.2 7.8" fill="url(#P)"/><linearGradient id="Q" gradientUnits="userSpaceOnUse" x1="58.7" y1="64.007" x2="60.101" y2="47.994"><stop offset=".028" stop-color="#3c3c3c"/><stop offset=".062" stop-color="#2d2d2d"/><stop offset=".218" stop-color="#8f8f8f"/><stop offset=".292" stop-color="#b8b8b8"/><stop offset=".517" stop-color="#474747"/><stop offset=".579" stop-color="#fff"/><stop offset=".781" stop-color="#e9e9e9"/><stop offset=".882" stop-color="#ccc"/><stop offset=".938" stop-color="#8b8b8b"/><stop offset="1" stop-color="#606060"/></linearGradient><path d="M100.2 65.4c-1.9-.1-5.1.2-6 .6-1.1.4-1.4.7-4 .7s-7.7-.7-7.7-.7l-55.8-8.8c-1.5-.5-3.3-1.5-5.3-2.7-2.1-1.2-3.2-2.4-3.2-3.2s1.3-1 1.3-1l59.9-.4s2.5-.1 3.3.1 4.5 1.9 5.6 2.1c2.7.5 12 .3 12 .3" fill="url(#Q)" stroke="#b8b8b8" stroke-width=".31"/><path d="M28.2 52.9l37.2.6s1.2.1 2 .3 1.6.8 1.6.8h9.4l-3.5.2c-.3.1-.1.2-.1.2H68l.3.3 2 .3 1.5 1.3h7.4s-1.4.3-1.7.5l-.3.2h-5.6s.2.3 1 .4c.8 0 .9.2 1.2.3.4.1 1.9 1.5 5.2 2.4 3.2.9 9 1.9 9 1.9s-8.3-.2-12-1.7c-3.6-1.5-8.5-5.1-9.7-5.6-1.1-.4-2.3-.3-2.3-.3l-28.2-1.2-7.6-.9z" fill="#191919"/><linearGradient id="R" gradientUnits="userSpaceOnUse" x1="141.304" y1="64.007" x2="139.903" y2="48.001"><stop offset=".028" stop-color="#3c3c3c"/><stop offset=".062" stop-color="#2d2d2d"/><stop offset=".218" stop-color="#8f8f8f"/><stop offset=".292" stop-color="#b8b8b8"/><stop offset=".517" stop-color="#474747"/><stop offset=".579" stop-color="#fff"/><stop offset=".781" stop-color="#e9e9e9"/><stop offset=".882" stop-color="#ccc"/><stop offset=".938" stop-color="#8b8b8b"/><stop offset="1" stop-color="#606060"/></linearGradient><path d="M99.8 65.4c1.9-.1 5.1.2 6 .6 1.1.4 1.4.7 4 .7s7.7-.7 7.7-.7l55.8-8.8c1.5-.5 3.3-1.5 5.3-2.7 2.1-1.2 3.2-2.4 3.2-3.2s-1.3-1-1.3-1l-59.9-.4s-2.5-.1-3.3.1-4.5 1.9-5.6 2.1c-2.7.5-12 .3-12 .3" fill="url(#R)" stroke="#b8b8b8" stroke-width=".31"/><path d="M171.8 52.9l-37.2.6s-1.2.1-2 .3-1.6.8-1.6.8h-9.4l3.5.2c.3.1.1.2.1.2h6.8l-.3.3-2 .3-1.5 1.3h-7.4s1.4.3 1.7.5l.3.2h5.6s-.2.3-1 .4c-.8 0-.9.2-1.2.3-.4.1-1.9 1.5-5.2 2.4-3.2.9-9 1.9-9 1.9s8.3-.2 12-1.7 8.5-5.1 9.7-5.6c1.1-.4 2.3-.3 2.3-.3l28.2-1.2 7.6-.9z" fill="#191919"/><path d="M100.2 59.6H88.7c-4.5 0-5.4-.6-7.2-2.2-2.5-2.1-2.2-3-2.2-3h20.9" fill="#fff"/><linearGradient id="S" gradientUnits="userSpaceOnUse" x1="89.968" y1="59.59" x2="89.968" y2="54.474"><stop offset=".006"/><stop offset=".118" stop-color="#00205f"/><stop offset=".332" stop-color="#00053f"/><stop offset=".758" stop-color="#000747"/><stop offset=".899" stop-color="#001e9f"/><stop offset="1"/></linearGradient><path d="M100.2 59.6H88.9c-4.4 0-5.5-.8-7.2-2.2-2.4-2.1-2.1-2.9-2.1-2.9h20.6" fill="url(#S)"/><path d="M99.5 59.6H111c4.5 0 5.4-.6 7.2-2.2 2.5-2.1 2.2-3 2.2-3H99.5" fill="#fff"/><linearGradient id="T" gradientUnits="userSpaceOnUse" x1="109.496" y1="59.59" x2="109.496" y2="54.474"><stop offset=".006"/><stop offset=".118" stop-color="#00205f"/><stop offset=".332" stop-color="#00053f"/><stop offset=".758" stop-color="#000747"/><stop offset=".899" stop-color="#001e9f"/><stop offset="1"/></linearGradient><path d="M99.5 59.6h11.3c4.4 0 5.5-.8 7.2-2.2 2.4-2.1 2.1-2.9 2.1-2.9H98.9" fill="url(#T)"/><path d="M104.1 57.6h2.9v-.3h-2v-1.5h-.9v1.8" fill="#fff"/><linearGradient id="U" gradientUnits="userSpaceOnUse" x1="105.521" y1="57.562" x2="105.521" y2="55.889"><stop offset=".028" stop-color="#686868"/><stop offset=".343" stop-color="#a1a1a1"/><stop offset=".579" stop-color="#fff"/><stop offset=".781" stop-color="#e9e9e9"/><stop offset=".91" stop-color="#ccc"/><stop offset="1" stop-color="#8b8b8b"/></linearGradient><path d="M104.1 57.6h2.8v-.4H105v-1.3h-.9v1.7" fill="url(#U)"/><path d="M88.2 55.8v1.8h.9v-.7h1.5v.7h.9v-1.8h-.9v.7h-1.5v-.7h-.9" fill="#fff"/><linearGradient id="V" gradientUnits="userSpaceOnUse" x1="89.862" y1="57.562" x2="89.862" y2="55.889"><stop offset=".028" stop-color="#686868"/><stop offset=".343" stop-color="#a1a1a1"/><stop offset=".579" stop-color="#fff"/><stop offset=".781" stop-color="#e9e9e9"/><stop offset=".91" stop-color="#ccc"/><stop offset="1" stop-color="#8b8b8b"/></linearGradient><path d="M88.3 55.9v1.7h.8v-.7h1.5v.7h.8v-1.7h-.8v.7h-1.5v-.7h-.8" fill="url(#V)"/><path d="M98.9 55.8l-.8.8-.9-.8h-1.1l1.3 1.1v.7h.9v-.8l1.2-1.1h-.6" fill="#fff"/><linearGradient id="W" gradientUnits="userSpaceOnUse" x1="97.819" y1="57.562" x2="97.819" y2="55.889"><stop offset=".028" stop-color="#686868"/><stop offset=".343" stop-color="#a1a1a1"/><stop offset=".579" stop-color="#fff"/><stop offset=".781" stop-color="#e9e9e9"/><stop offset=".91" stop-color="#ccc"/><stop offset="1" stop-color="#8b8b8b"/></linearGradient><path d="M98.8 55.9l-.8.7-.8-.7h-1l1.2 1v.7h.8v-.7l1.1-1h-.5" fill="url(#W)"/><path d="M107.7 57.6h3v-.3h-2.1v-.4h2v-.3h-2v-.5h2.1v-.3h-3v1.8" fill="#fff"/><linearGradient id="X" gradientUnits="userSpaceOnUse" x1="109.234" y1="57.562" x2="109.234" y2="55.889"><stop offset=".028" stop-color="#686868"/><stop offset=".343" stop-color="#a1a1a1"/><stop offset=".579" stop-color="#fff"/><stop offset=".781" stop-color="#e9e9e9"/><stop offset=".91" stop-color="#ccc"/><stop offset="1" stop-color="#8b8b8b"/></linearGradient><path d="M107.8 57.6h2.8v-.3h-1.9v-.4h1.9v-.3h-1.9v-.4h1.9v-.3h-2.8v1.7" fill="url(#X)"/><path d="M100 56.3c0 .4.5.5 1.1.6.7.1 1 .1 1 .3 0 .1-.2.2-.8.2-.7 0-1.2-.2-1.3-.2l-.1.4c.1 0 .6.1 1.4.1.9 0 1.7-.1 1.7-.6 0-.3-.3-.5-1.3-.6-.4 0-.8-.1-.8-.2s.1-.2.7-.2 1 .1 1.1.1l.1-.3c-.1 0-.7-.1-1.4-.1-.6 0-1.4 0-1.4.5" fill="#fff"/><linearGradient id="Y" gradientUnits="userSpaceOnUse" x1="101.502" y1="57.633" x2="101.502" y2="55.814"><stop offset=".028" stop-color="#686868"/><stop offset=".343" stop-color="#a1a1a1"/><stop offset=".579" stop-color="#fff"/><stop offset=".781" stop-color="#e9e9e9"/><stop offset=".91" stop-color="#ccc"/><stop offset="1" stop-color="#8b8b8b"/></linearGradient><path d="M100.1 56.3c0 .4.5.5 1.1.6s.9.1.9.2-.2.2-.7.2c-.6 0-1.1-.1-1.2-.2l-.1.4c.1 0 .6.1 1.3.1.8 0 1.6-.1 1.6-.6 0-.3-.3-.5-1.2-.6-.4 0-.8-.1-.8-.2s.1-.2.6-.2 1 .1 1 .1l.1-.3c-.1 0-.6-.1-1.3-.1-.6.1-1.3.2-1.3.6" fill="url(#Y)"/><path d="M84.2 56.7c0 .6.6 1 1.9 1 .5 0 1-.1 1.1-.1l.1-.4c-.1 0-.5.1-1 .1-.7 0-1.2-.2-1.2-.6s.4-.6 1.2-.6c.4 0 .9.1.9.1l-.1-.4c-.1 0-.6-.1-1-.1-1.3.1-1.9.4-1.9 1" fill="#fff"/><linearGradient id="Z" gradientUnits="userSpaceOnUse" x1="85.687" y1="57.633" x2="85.687" y2="55.817"><stop offset=".028" stop-color="#686868"/><stop offset=".343" stop-color="#a1a1a1"/><stop offset=".579" stop-color="#fff"/><stop offset=".781" stop-color="#e9e9e9"/><stop offset=".91" stop-color="#ccc"/><stop offset="1" stop-color="#8b8b8b"/></linearGradient><path d="M84.3 56.7c0 .5.6.9 1.8.9.5 0 .9-.1 1-.1l.1-.4c-.1 0-.5.1-.9.1-.7 0-1.1-.2-1.1-.5 0-.4.4-.5 1.1-.5.4 0 .8.1.9.1l-.2-.4c-.1 0-.5-.1-1-.1-1.2 0-1.7.4-1.7.9" fill="url(#Z)"/><path d="M92.7 57.6h.9v-1.4h.5.5c.3 0 .4.1.4.2s-.1.2-.4.3h-.5-.3l1 .9h1.1l-1-.7c.2 0 .3 0 .5-.1.3-.1.4-.2.4-.4s-.1-.4-.6-.5c-.3-.1-.6-.1-1.1-.1h-1.3c-.1.1-.1 1.8-.1 1.8" fill="#fff"/><linearGradient id="a" gradientUnits="userSpaceOnUse" x1="94.266" y1="57.562" x2="94.266" y2="55.863"><stop offset=".028" stop-color="#686868"/><stop offset=".343" stop-color="#a1a1a1"/><stop offset=".579" stop-color="#fff"/><stop offset=".781" stop-color="#e9e9e9"/><stop offset=".91" stop-color="#ccc"/><stop offset="1" stop-color="#8b8b8b"/></linearGradient><use xlink:href="#h" fill="url(#a)"/><path d="M111.7 57.6h.9v-1.5h.5.5c.3 0 .4.1.4.2s-.1.2-.4.3h-.5-.3l1 .9h1.1l-1-.7c.2 0 .3 0 .5-.1.3-.1.4-.2.4-.4s-.1-.4-.6-.5c-.3-.1-.6-.1-1.1-.1h-1.4v1.9" fill="#fff"/><linearGradient id="b" gradientUnits="userSpaceOnUse" x1="94.273" y1="57.562" x2="94.273" y2="55.863"><stop offset=".028" stop-color="#686868"/><stop offset=".343" stop-color="#a1a1a1"/><stop offset=".579" stop-color="#fff"/><stop offset=".781" stop-color="#e9e9e9"/><stop offset=".91" stop-color="#ccc"/><stop offset="1" stop-color="#8b8b8b"/></linearGradient><use xlink:href="#h" x="19" fill="url(#b)"/><linearGradient id="c" gradientUnits="userSpaceOnUse" x1="80.661" y1="56.438" x2="70.846" y2="56.438"><stop offset=".146" stop-color="#dadada"/><stop offset="1" stop-color="#666"/></linearGradient><path d="M79.6 55.9h-8.8l1.3 1.1h8.6" fill="url(#c)"/><path d="M78.5 54.6l-3 .1c-.7.1-.9.4-.9.4s1.7.5 2.4.5l2.3.1-.8-1.1z" fill="#929292"/><path d="M77.5 57.6h-5.8s.5.6 1.3.6h7.8l-3.3-.6zm44.9 0h5.8s-.5.6-1.3.6h-7.8l3.3-.6z" fill="#f2f2f2"/><path d="M80 57h-1.2c-.9.1-1.4.5-1.4.5s.8.3 1.6.4l2.2.3" fill="#848c8e"/><linearGradient id="d" gradientUnits="userSpaceOnUse" x1="119.372" y1="56.438" x2="129.187" y2="56.438"><stop offset=".146" stop-color="#dadada"/><stop offset="1" stop-color="#666"/></linearGradient><path d="M120.4 55.9h8.8l-1.3 1.1h-8.5" fill="url(#d)"/><path d="M121.5 54.6l2.9.1c.7.1 1 .4 1 .4s-1.7.5-2.4.5l-2.3.1.8-1.1z" fill="#929292"/><path d="M120 57h1.2c.9.1 1.6.5 1.6.5s-.9.3-1.7.4l-2.2.3" fill="#848c8e"/><path d="M100.2 65.2s-2.1 0-3.6.2c-2.9.4-2.5.7-4.1 1.1-1.5.4-7.4-.4-7.4-.4l-54.2-8.3c-4.2-.7-4-.5-7.2-2.2-4.3-2.2-5.5-4.1-5.5-4.1s.8.4 1.9 1.1c5.5 3.5 6 3.4 7.1 3.8 3.1 1.2 50.7 8 50.7 8s10.8 1.9 12.6 1.2 2.8-1.4 3.6-1.5c3-.7 7.2-.5 7.2-.5"/><path d="M99.8 65.2s2.1 0 3.6.2c2.9.4 2.5.7 4.1 1.1 1.5.4 7.4-.4 7.4-.4l54.2-8.3c4.2-.7 3.9-.6 7.2-2.2 4.5-2.2 5.5-4.1 5.5-4.1s-.8.4-1.9 1.1c-5.5 3.5-6 3.4-7.1 3.8-3.1 1.2-50.7 8-50.7 8s-10.8 1.9-12.6 1.2-2.8-1.4-3.6-1.5c-3-.7-7-.5-7-.5"/><linearGradient id="e" gradientUnits="userSpaceOnUse" x1="59.635" y1="53.802" x2="59.635" y2="50.004"><stop offset=".028" stop-color="#b0b0b0"/><stop offset=".326" stop-color="#dcdcdc"/><stop offset=".579" stop-color="#b5b5b5"/><stop offset=".68" stop-color="#9d9d9d"/><stop offset=".938" stop-color="#8b8b8b"/></linearGradient><path d="M100.6 52.6s-11.6 0-12.8-.4c-.9-.3-3.6-1.6-4.4-1.9s-2.7-.3-2.7-.3l-61.1.4c-.5.1-1.1.5-1.1.5l5.5.8c18.1 1.4 57.4.7 58.8.9s2.4 1.2 4.3 1.2h13.7" fill="url(#e)"/><linearGradient id="f" gradientUnits="userSpaceOnUse" x1="140.25" y1="53.804" x2="140.25" y2="50.005"><stop offset=".028" stop-color="#b0b0b0"/><stop offset=".326" stop-color="#dcdcdc"/><stop offset=".579" stop-color="#b5b5b5"/><stop offset=".68" stop-color="#9d9d9d"/><stop offset=".938" stop-color="#8b8b8b"/></linearGradient><path d="M99.3 52.6s11.6 0 12.8-.4c.9-.3 3.6-1.6 4.4-1.9.9-.3 2.7-.4 2.7-.4l61.1.4c.5.1 1.1.5 1.1.5l-5.5.8c-18.1 1.4-57.4.7-58.8.9s-2.4 1.2-4.3 1.2H99.1" fill="url(#f)"/><defs ><path id="h" d="M92.7 57.6h.8v-1.4h.4.5c.3 0 .3.1.3.2s-.1.2-.4.3h-.4-.3l1 .9h1.1l-1-.7c.2 0 .3 0 .5-.1.3-.1.4-.2.4-.4s-.1-.4-.6-.5c-.3-.1-.6-.1-1-.1h-1.3v1.8"/></defs></svg>