<svg xmlns="http://www.w3.org/2000/svg" viewBox="0 0 200 100" xmlns:v="https://vecta.io/nano"><path d="M43.8 47.5c-.4-.8-1.1-1.4-1.8-1.8-1.5-.8-3.3-1.2-5-1.4-2.5-.3-5-.2-7.6-.2h-8.3c-.5 0-1.1.1-1.4.5-.2.3-.1.6-.2 1-.1 1.1-.1 2.2-.1 3.3v2.3c.1.5-.1 1.2.3 1.6s1 .5 1.6.5h8.6c.4 0 .9-.1 1.3 0 2.9 0 5.8 0 8.7-.6l2.2-.7c1-.5 1.7-1.4 2-2.5a3.52 3.52 0 0 0-.3-2zm-5.6 1.7c-.2.8-1.1 1.3-1.9 1.5-.7.2-1.3.3-2 .4-.4 0-.8 0-1.2.1h-6c-.5 0-1 .1-1.5-.1-.2-.1-.3-.3-.2-.5v-3.7c0-.3.4-.4.6-.4h4.1c2.2 0 4.4-.1 6.5.5.6.2 1.2.5 1.5 1 .1.3.2.8.1 1.2z" fill="#12110c"/><path d="M72.9 47c-.8-1-2.1-1.5-3.3-1.9l-1.2-.3c-.1 0-.2 0-.3-.1-.7-.2-1.4-.3-2.1-.4l-3.6-.3a56.22 56.22 0 0 0-8.2.3c-1.7.2-3.4.6-4.9 1.3-.7.4-1.4.9-1.8 1.7-.5 1-.5 2.2.2 3.1.6.8 1.5 1.3 2.3 1.7.4.2.9.3 1.3.4 2.5.7 5.2.9 7.8.9 3 0 6.1 0 9.1-.6 1.2-.3 2.4-.6 3.5-1.3.7-.4 1.3-1.1 1.6-1.9.3-.7.2-1.8-.4-2.6zm-5.3 2.1c-.2.7-.8 1.1-1.4 1.3-1.1.5-2.3.6-3.4.7-1.5.1-3.1.1-4.6 0-1.2-.1-2.4-.3-3.5-.8-.6-.3-1.2-.6-1.4-1.2-.2-.5 0-1.1.3-1.4.5-.5 1.3-.8 2-1 1.9-.5 3.9-.5 5.8-.5h.1c1 0 2 .1 3 .3.9.2 1.9.4 2.6 1 .4.4.7 1 .5 1.6z" fill="#13120e"/><path d="M101.1 48.1c-.1-.6-.4-1.1-.8-1.5a6.57 6.57 0 0 0-1.7-1.2c-1.4-.6-2.9-.9-4.4-1.1-2-.2-4-.2-6-.2H79c-.7 0-1.5-.1-2 .5-.3.4-.2.9-.3 1.4-.1.4 0 .9-.1 1.3v4.5c0 .2 0 .4.1.6.2.5.8.8 1.4.8.5.1 1 0 1.5 0h8c.5-.1 1 0 1.6 0l6.1-.2 2.3-.4 1.1-.3c.5-.2.9-.4 1.3-.7.7-.5 1.1-1.3 1.3-2.1-.2-.5-.2-1-.2-1.4zm-6.3 1.8c-.5.5-1.2.7-1.9.9-1.9.5-3.9.3-5.8.4h-3.6c-.4 0-.7 0-1.1-.1-.3-.1-.3-.4-.3-.7V47c0-.2 0-.4.2-.5.4-.2.8-.1 1.3-.1h4.6l3.2.1c.9.1 1.7.3 2.6.6.5.2.9.5 1.2 1 .2.6.1 1.4-.4 1.8z" fill="#12110c"/><path d="M157.7 38.7h9.6l-2.1 2.4-5.6 6.5-3.8 4.4v-.3c.8-.8 1.5-1.7 2.2-2.5l7.9-9.1c.4-.4.7-.8 1.1-1.3h-4.7-4.2c-.2 0-.3 0-.4.2l-3.8 4.5c-.2.2-.4.5-.7.7h-.1a111.71 111.71 0 0 1 4.6-5.5zm13.3 0h9.6c-.2.3-.4.5-.6.8l-18.5 21.4c-.2.2-.3.4-.5.4h-9.4l2.4-2.8 17-19.8z" fill="#dd4311"/><path d="M157.6 39c.1-.1.2-.2.4-.2h4.2 4.7c-.3.5-.7.9-1.1 1.3l-7.9 9.1-2.2 2.5a.55.55 0 0 0-.3-.5c-.3-.1-.7-.1-1-.1h-7.5l1.3-1.5h5.7c.2 0 .5-.1.6-.3.1-.3.1-.7.1-1.1 0-.3-.2-.5-.4-.6-.5-.1-1 0-1.5 0H150l1.2-1.3h3.1.7c.2-.1.4-.3.4-.5v-.9c0-.3-.3-.5-.6-.5h-1.7c.3-.2.5-.5.7-.7l3.8-4.7zm13.5-.1c.1-.1.3 0 .5 0h7.7 1c-.2.4-.5.7-.8 1l-7.3 8.4-2.1 2.4-8.6 9.9c-.2.2-.3.5-.6.5h-9l2.3-2.7 16.9-19.5z" fill="#ce312a"/><path d="M57.6 44.3c1.7-.1 3.5-.1 5.2 0 .4.1.8 0 1.2.1 1.6.1 3.2.3 4.8.7l.9.3c.1.1.2.1.3.2h-.5c.3.1.5.2.8.4.2.1.3.2.5.2.1 0 .2.1.3.1.3.2.6.4.8.6l.2.2h-.8l-.1-.1c-.6-.1-1.1 0-1.7 0h-1.3v.2a4.44 4.44 0 0 0-1.1-.8c-1.1-.5-2.3-.7-3.5-.9l-3.1-.2c-1.4 0-2.8.1-4.1.3-.8.1-1.6.3-2.4.7a2.73 2.73 0 0 0-1.2.9l-.1.1c0-.1 0-.2.1-.3-.4-.2-.9-.1-1.3-.1-.5-.1-1 0-1.4 0-.2 0-.4.2-.6.1 0-.1 0-.1.1-.2-.3 0-.5.2-.6.3h-.2V47l.5-.5c.2-.1.3-.2.5-.4.2-.1.3-.2.5-.3l.6-.3c-.2 0-.4 0-.6-.1.1 0 .1-.1.2-.1l1-.3 2.1-.5c1-.2 2-.3 3-.3.1.1.5.1 1 .1z" fill="#edf5fc"/><path d="M111.9 44.3l4.8-.1h5.9 5.7c.2 0 .4 0 .6.2v.8.7c-.1.1-.3.2-.5.2h-3.2-.5-8-1.4c-.3.1-.6 0-.9 0-1 .1-1.9.2-2.8.5-.5.2-1 .5-1.3.9-.4.5-.4 1.1-.2 1.7.2.5.6.8 1.1 1 .9.4 1.9.6 2.9.7-.1 0-.2.1-.3.1l-1.8-.3c-.5-.2-1.1-.3-1.5-.7-.5-.4-.8-1-.7-1.7 0-.1 0-.2.1-.2 0-.1 0-.1.1-.2.2-.6.7-1 1.3-1.2 1.2-.5 2.6-.6 3.9-.7h5.6 2 5.5c.2 0 .6 0 .7-.3 0-.4 0-.9-.1-1.3h0c-.2-.1-.4-.1-.6-.1h-11.9l-4.7.1s-3.1.4-4.5.9l-.6.3-.6.3c-.2.1-.3.2-.5.4l-.3.3c-.6.7-.8 1.7-.5 2.7 0 .1.1.2.1.4.4.9 1.3 1.5 2.2 1.9 1.4.6 3 .9 4.5 1 1.6.2 3.2.1 4.8.1h11.1c.4 0 .8 0 1.1-.2s.3-.5.4-.8c.1-.8 0-1.7 0-2.5v-.9c0-.1 0-.2-.1-.2-.2-.3-.6-.4-.9-.4h-11.4c-.3 0-.7.1-.7.5v.3.7c.1.2.2.3.4.3h5.7 1.1c.2.1.4.3.5.5v.3c0 .2 0 .5-.2.7h-.1s-.1-.1-.2-.1c.1-.1.2-.1.2-.3v-.8c-.1-.3-.4-.3-.7-.3h-6.4c-.2 0-.4-.1-.4-.3-.1-.4-.1-.9 0-1.3.1-.2.3-.3.5-.4h11 1.1c.3.1.7.3.8.6.1.5.1 1 .1 1.4l-.1 2.4c0 .4-.2.7-.6.9-.3.2-.7.2-1 .2h-11.2c-1.9 0-3.8 0-5.7-.2-1.1-.1-2.2-.4-3.2-.7-1.1-.4-2.3-1.1-2.8-2.2a3.87 3.87 0 0 1 0-2.6c.5-1 1.5-1.6 2.5-2 1.4-.6 3.1-.9 4.8-1z" fill="#12120d"/><path d="M133.4 44.4c.2-.2.6-.2.9-.2h4.9 11.6 2.2.1 1.7c.3 0 .5.2.6.5v.9c0 .2-.2.5-.4.5-.2.1-.4 0-.7 0h-3.1-11.7c-.2 0-.5 0-.6.2-.1.3 0 .6 0 1 .2.1.5.2.8.1h10.4 2.7c.5 0 1-.1 1.5 0 .3.1.4.3.4.6 0 .4 0 .7-.1 1.1-.1.2-.4.4-.6.3h-5.7-8.6a1.08 1.08 0 0 0-.7.3c-.2.3-.2.6-.1.9 0 .1.1.2.3.2.5.1 1 .1 1.5.1h6.4 7.5c.3 0 .7 0 1 .1a.55.55 0 0 1 .3.5v.3.7c-.1.2-.2.4-.4.5h-.6-9.6-10.7c-.3 0-.7 0-1-.2-.2-.1-.3-.3-.4-.5-.2-.5-.1-1.1-.1-1.7l.1-5.6c-.1 0 0-.4.2-.6z" fill="#12110c"/><path d="M20.3 44.5c.5-.2 1-.1 1.5-.2h11.7c.5.1 1 0 1.5.1.9 0 1.7.1 2.6.2 1.1.2 2.3.4 3.4.8-.5.2-1.1 0-1.7.1-.4 0-.7-.2-1.1-.2-.9-.1-1.8-.3-2.7-.3-.6-.1-1.3 0-1.9-.1h-2.1-1.1-1.2-7.1c-.4 0-.9 0-1.3.1-.2.1-.2.4-.2.6h-.8v-.4c-.1-.3.2-.6.5-.7zm56.6.4c.3-.4.8-.5 1.3-.5h9.9l5.9.2c1.3.2 2.7.4 4 .9-.2.1-.4.1-.7.1h-1c-.8-.2-1.7-.4-2.5-.4-.6-.1-1.2-.1-1.8-.2h-2c-.7-.1-1.4 0-2 0h-9.3c-.3 0-.7 0-1 .1-.2.1-.2.3-.2.5h-.8c.1-.3.2-.5.2-.7zm34.6-.4l4.7-.1h11.9c.2 0 .4 0 .6.1 0 .2-.2.3-.4.4h-.1v.6h-.1V45h-5-6.6c-1.5 0-2.9-.1-4.4.1-1.2 0-2.5.3-3.7.6h-1.2c-.1 0-.2 0-.3-.1 1.5-.7 3-.9 4.6-1.1zm22.3 0c.4-.1.8-.1 1.2-.1h11.2 8.3c.2 0 .4 0 .6.2v.2a.76.76 0 0 1-.4.2h0c0 .1 0 .3-.1.4 0-.1 0-.3-.1-.4h-18.1-2.3c-.1.2-.2.4-.2.6h-.7v-.3c.1-.3.2-.7.6-.8z" fill="#eee"/><path d="M128.7 44.5h0c.2.5.1.9.1 1.3 0 .3-.4.3-.7.3h-5.5-2c.2-.1.5-.1.7-.1l2.7-.2c.6-.1 1.2-.1 1.8-.1.4-.1.8 0 1.1-.1.4 0 .7-.1 1.1 0 .2 0 .4.3.6.4-.1-.2-.2-.3-.3-.5s0-.4-.1-.6c.3-.1.5-.2.5-.4z" fill="#4a555d"/><path d="M155.1 44.5c.3.4.2.9.1 1.3-.1-.1-.2-.1-.3-.1H139c-.1 0-.3 0-.4-.1.4-.3.9-.3 1.4-.3h4.2 1.8 7.8 1.1v-.5c.1-.1.3-.1.4-.2-.2.1-.2 0-.2-.1z" fill="#424b53"/><path d="M76.8 45.2c0-.1 0-.2.1-.3 0 .2-.1.5-.1.7v.1.2h.6s.1.1.1.2v1.6-.3-.8-.3h-.8c0-.4.1-.8.1-1.1z" fill="#778082"/><path d="M128.3 45.5v-.6h.1c0 .2 0 .4.1.6s.2.3.3.5c-.2-.1-.3-.4-.6-.4-.4-.1-.7 0-1.1 0s-.8 0-1.1.1c-.6.1-1.2.1-1.8.1l-2.7.2c-.2 0-.5 0-.7.1h-5.6c-1.3 0-2.7.1-3.9.7-.4 0-.8.1-1.2 0 .9-.8 2.1-1.1 3.2-1.2l2.3-.2h11.7c.2.1.6 0 1 .1h0z" fill="#5b6d7a"/><path d="M136.5 44.9h18.1c0 .1 0 .3.1.4 0-.1 0-.3.1-.4h0v.5c-.3-.1-.7 0-1.1 0h-7.8c-.6 0-1.2.1-1.8 0h-4.2c-.5 0-1 0-1.4.3-.3.2-.4.5-.4.8v1l-.1-.1c-.1-.3 0-.7 0-1-.1 0-.1 0-.2-.1l-.1.1c-.3-.2-.6 0-.9 0-.5 0-1-.1-1.5 0-.2 0-.3-.1-.5 0s-.5 0-.7 0v-.8c0-.2.1-.5.2-.6.6-.1 1.4 0 2.2-.1z" fill="#ecf5fc"/><path d="M20.8 45c.4-.1.9-.1 1.3-.1h7.1c.4 0 .8.1 1.2 0h1.1 2.1c.6.1 1.3 0 1.9.1.9 0 1.8.2 2.7.3.4 0 .7.2 1.1.2l.9.3h.2c.3.1.6.3.9.4l.9.6.2.2c-.2 0-.4 0-.6-.1-.5.1-.9 0-1.4 0-.5-.1-1 0-1.6 0 0 .1-.1.2-.1.3-.2-.3-.4-.5-.7-.7l-.6-.3c-1-.5-2.2-.6-3.3-.7-1.2-.1-2.4-.1-3.6-.1h-3.2c-.7.1-1.5-.1-2.2.1-.5.1-.8.5-.9 1v.1h-.4c-1.1-.1-2.2 0-3.3 0v-1.2c0 0 0-.2.3-.4z" fill="#edf6fc"/><path d="M77.8 45.1c.3-.1.6-.1 1-.1h9.3c.7.1 1.4 0 2 0h2c.6.1 1.2 0 1.8.2l2.5.4c.2.1.5.2.8.2.1 0 .2 0 .3.1.2.1.5.2.7.3.1.1.2.1.4.2l.9.6c.2.1.3.3.4.5-.2-.1-.4-.2-.6-.4-.4-.1-.6-.1-.8-.1h-.9-1.5c0 .2 0 .3-.1.5-.3-.5-.7-.9-1.3-1.1-.9-.5-2-.6-3.1-.7-2.2-.2-4.4-.1-6.6-.1h-1.5c-.5 0-1 0-1.5.2-.3.1-.5.4-.6.6-.1.1-.1.2-.2.4 0-.1 0-.2-.1-.2-.6 0-1.3.1-1.9 0-.2.1-.5 0-.7 0-.3 0-.5 0-.8.1 0 .2-.1.4-.1.6-.1-.5 0-1.1-.1-1.6.1-.3.1-.6.3-.6zm34.4-.1c1.5-.2 2.9-.1 4.4-.1h6.6 5v.5h-1-11.7c-.8 0-1.5.1-2.3.2-1.1.2-2.3.4-3.2 1.2h0-.2c.1-.1.2-.2.3-.4h-.1c-.1 0-.2.1-.3.1l.1-.1c-.3 0-.6.1-.9.1-.4.1-.8-.2-1.2 0-.2.1-.4 0-.6 0h-.5c.2-.1.3-.2.5-.3s.5-.3.7-.4l.8-.3 3.6-.5z" fill="#ecf5fc"/><path d="M19.7 45.9c0-.2 0-.5.1-.7v.4h.8v1.2 1.5.1l-.1-.1v-.7-.6-.6-.4c-.3-.1-.5-.1-.8-.1z" fill="#adb1b4"/><path d="M133.2 46.2c0-.3 0-.6.1-1v.3.3h.7c.1.3.1.5.1.8v1.2-1.1-.4-.3c-.4.2-.7.2-.9.2h0 0z" fill="#80868b"/><path d="M56.3 45.7a28.28 28.28 0 0 1 4.1-.3c1 0 2.1 0 3.1.2 1.2.2 2.4.4 3.5.9-.2.1-.5 0-.7 0-.4.1-.7-.1-1.1.1-1.2-.3-2.5-.4-3.8-.5l-4.7.2c-1 .2-2 .4-2.8.9-.1 0-.2 0-.3.1-.3-.1-.7 0-1 0 .3-.4.8-.7 1.2-.9.9-.4 1.7-.6 2.5-.7z" fill="#566672"/><path d="M69.7 45.4c.4.1.8.3 1.1.5-.2 0-.4.1-.6.1-.3-.1-.5-.2-.8-.4h.5c0-.1-.1-.2-.2-.2z" fill="#bbbec2"/><path d="M39.3 45.6c.6-.1 1.1.1 1.7-.1.2.1.3.1.5.2h-1.3s0 .1.1.2c-.4 0-.7-.2-1-.3z" fill="#cccdcf"/><path d="M97.9 45.5h0c.2 0 .3.1.4.2-.4.1-.9 0-1.3.1v.1c-.3-.1-.5-.1-.8-.2h1c.3-.1.6-.1.7-.2z" fill="#d2d3d7"/><path d="M106.3 45.8l.6-.3c.1.1.2.1.3.1h1.2l-.8.3c-.3-.2-.8 0-1.3-.1z" fill="#cbccce"/><path d="M25.2 45.7c.7-.2 1.5-.1 2.2-.1h3.2l3.6.1c1.1.1 2.3.2 3.3.7h-.6c-.4 0-.9 0-1.2.2a23.08 23.08 0 0 0-3.7-.3h-6c-.4 0-.8.2-.9.5 0 .1-.1.2-.1.3-.2 0-.4.1-.6.1v-.4c0-.6.3-1 .8-1.1z" fill="#5a6c79"/><path d="M50.1 45.6c.2 0 .4 0 .6.1l-.6.3v-.1c-.1 0-.3-.1-.4-.1.1-.1.2-.2.4-.2z" fill="#babec1"/><path d="M76.8 45.6h.8c.1.5 0 1.1.1 1.6v1.2h3.5v-1.6a.76.76 0 0 1 .2-.4c-.1.3-.1.5-.1.8v.6.9h-3.6v-.1h-.1v-.8-1.6-.4h-.7c-.1-.1-.1-.2-.1-.2z" fill="#dadadb"/><path d="M82 45.7c.5-.2 1-.2 1.5-.2H85l6.6.1c1 .1 2.1.2 3.1.7-.3 0-.7-.1-1 0-.5.1-1.1.1-1.6.1-1.1-.2-2.2-.2-3.3-.2h-5.9c-.4 0-.8.3-.8.7-.2 0-.3.1-.5.1l-.1-.1c-.1 0-.2.1-.2.1 0-.3 0-.5.1-.8.2-.1.3-.4.6-.5z" fill="#5a6c79"/><path d="M133.2 45.6h.7v.8 1.9.2h3.4 2.2 10.9 3.1l.1.1h-19.2-.6v-.1-.6-1.2c0-.3 0-.5-.1-.8h-.7c.2-.1.2-.2.2-.3z" fill="#b1b4b9"/><path d="M98.4 45.6c.1 0 .2.1.3.1-.4.2-.9 0-1.3.1-.1 0-.2 0-.3-.1v-.1c.4.1.8.2 1.3 0z" fill="#b2b6b9"/><path d="M41.5 45.7c.1 0 .2.1.3.1-.4.2-.9 0-1.3.1h-.2s0-.1-.1-.2c.4 0 .8.1 1.3 0z" fill="#a7abae"/><path d="M76.8 45.7h.7v.4s-.1-.1-.1-.2h-.6c0 0 0-.1 0-.2z" fill="#abb0b3"/><path d="M138.1 46.5c0-.3.2-.6.4-.8.1 0 .3.1.4.1h15.9c.1 0 .2 0 .3.1-.1.1-.2.3-.3.3h-4.5-11.1c-.3 0-.5.2-.6.4-.1-.1-.3-.1-.5-.1z" fill="#63686f"/><path d="M49.4 45.9c.1 0 .2-.1.2-.1.1 0 .3.1.4.1v.1c-.2.1-.3.2-.5.3 0-.1.1-.1.1-.2h-.3c.1-.1.1-.2.1-.2z" fill="#969b9f"/><path d="M98.6 45.8c.2.1.3.2.5.3-.4.1-.8-.1-1.1.1-.2-.1-.5-.2-.7-.3.5-.1.9.1 1.3-.1z" fill="#8d9396"/><path d="M105.7 46.1l.6-.3c.4.1.9-.1 1.3.1-.3.1-.5.2-.7.4-.3-.3-.8-.1-1.2-.2z" fill="#8c9295"/><path d="M41.8 45.8c.2.1.5.3.7.4-.4.1-.7-.1-1.1.1-.3-.1-.6-.3-.9-.4.4 0 .8.1 1.3-.1z" fill="#80878a"/><path d="M70.9 45.8c.1 0 .2.1.3.1-.1 0-.2.1-.4.1v.1c-.2-.1-.3-.2-.5-.2.2 0 .4-.1.6-.1z" fill="#94999d"/><path d="M19.7 45.9h.7v.4h-.8c.1-.1.1-.2.1-.4 0 .1 0 0 0 0z" fill="#788083"/><path d="M48.8 46.2c.2-.1.4-.2.5-.3v.2h.3c0 .1-.1.1-.1.2-.2.1-.3.2-.5.4v-.2h-.3c.1-.2.1-.2.1-.3z" fill="#71787c"/><path d="M71.1 46a.76.76 0 0 1 .4.2c-.2 0-.3.1-.5.1-.1 0-.2-.1-.3-.1v-.1c.2-.1.3-.1.4-.1z" fill="#798084"/><path d="M19.6 48.7l.1-2.6v.2c0 .2 0 .4.1.6.2.1.5 0 .7.1v.6c-.1.5 0 1-.1 1.4-.2.2-.5.1-.7 0 0 .2 0 .3-.1.5v.1c-.1-.3 0-.6 0-.9z" fill="#424b53"/><path d="M99.2 46.1c.1 0 .2.1.3.2-.3.2-.7 0-1.1.1-.1-.1-.2-.1-.4-.2.4-.2.8-.1 1.2-.1z" fill="#72797f"/><path d="M105.3 46.5c.2-.1.3-.3.5-.4.4.1.8-.1 1.2.1-.2.1-.3.2-.5.3-.1 0-.1.1-.2.1-.3-.2-.7 0-1-.1z" fill="#656d73"/><path d="M71.5 46.2h0c.3.2.6.4.8.6-.2 0-.3.1-.4.2-.3-.2-.5-.4-.8-.6a.76.76 0 0 1 .4-.2z" fill="#5a6369"/><path d="M19.7 46.3a1.1 1.1 0 0 0 .8 0v.6c-.2-.1-.5 0-.7-.1-.1-.1-.1-.3-.1-.5z" fill="#545d64"/><path d="M36.9 46.3c.2 0 .4.1.6 0l.6.3c-.5 0-.9.1-1.3.1l-1.2-.3c.5-.1.9-.1 1.3-.1z" fill="#525f69"/><path d="M42.4 46.2h0c.3.2.5.4.7.6-.2.1-.5 0-.7 0 0 .1-.1.1-.1.2-.3-.2-.6-.5-.9-.6.3-.2.7-.1 1-.2z" fill="#565f66"/><path d="M48.2 46.8c.2-.2.4-.4.7-.6 0 .1-.1.1-.1.2h.3v.2c-.2.1-.3.3-.5.5v-.2c-.2-.1-.3-.1-.4-.1z" fill="#535c63"/><path d="M98.4 46.4c.3-.2.7.1 1.1-.1h0c.2.2.5.3.6.6-.2.3-.6-.1-.8.2-.3-.4-.6-.6-.9-.7z" fill="#545d64"/><path d="M133.2 46.2h0c.1.1.1.2.1.3h.7v.4c-.2 0-.5.1-.7 0 0-.1-.1-.2-.1-.3-.1-.2 0-.3 0-.4z" fill="#515a61"/><path d="M133.2 46.2h.7v.3h-.7v-.3z" fill="#656c72"/><path d="M76.7 46.3h.8v.3h-.8v-.3z" fill="#5f676d"/><path d="M93.8 46.4c.3-.1.7.1 1 0 .5.2 1 .6 1.3 1.1 0 0 0 .1.1.1.1.4.2.7.2 1.1 0 .1 0 .3-.1.4h-.8c.1-.6-.1-1.2-.5-1.6-.8-.7-1.8-.8-2.7-1 .4-.1.9-.1 1.5-.1z" fill="#4b555e"/><path d="M134.7 46.4c.2-.1.3 0 .5 0 .5-.1 1 0 1.5 0 .3.1.6-.1.9 0l.1-.1c.1 0 .1 0 .2.1v1l.1.1c.2.2.3.5.6.6v.1h-4.7v-1.9c.3.1.6.2.8.1z" fill="#fbfcfe"/><path d="M65.2 46.5c.3-.2.7 0 1.1-.1.2 0 .5.1.7 0a4.44 4.44 0 0 1 1.1.8c.3.3.5.7.5 1.1v.1.3c0 .2-.1.4-.2.6-.3.1-.7.1-1 .1.3-.5.3-1.3-.1-1.8s-1.3-.8-2.1-1.1z" fill="#4a555d"/><path d="M107.6 46.5c.4-.2.8.1 1.2 0 .3-.1.6-.1.9-.1l-.1.1c.1 0 .2-.1.3-.1h.1c-.1.1-.2.2-.3.4h.2c-.3.2-.5.6-.6.9 0 0 0 .1-.1.1 0 .1-.1.3-.1.4h-4c0-.5.3-1 .6-1.3a1.38 1.38 0 0 1 .4-.3c.1 0 .1-.1.2-.1h.5c.4-.1.6.1.8 0zm-29.1 0c.2 0 .5.1.7 0 .6.1 1.3 0 1.9 0 .1 0 .1.1.1.2v1.6h-3.5c0-.4-.1-.8 0-1.2 0-.2.1-.4.1-.6h.7z" fill="#fbfcfe"/><path d="M104.9 46.8l.3-.3c.3.1.7-.1 1 .2-.1.1-.3.2-.4.3-.2-.1-.6-.1-.9-.2z" fill="#4f585f"/><path d="M138.1 46.5h.6v1l.3.3s.1 0 .1.1c-.1 0-.2.1-.3.1s-.2.1-.2.2c.1 0 .2.1.3.1-.1 0-.2 0-.3-.1-.3-.1-.4-.4-.6-.6 0-.4 0-.7.1-1.1z" fill="#444e55"/><path d="M76.7 46.6h.8v.8c0-.1-.1-.3-.1-.4h-.7v-.4z" fill="#4f585f"/><path d="M133.2 46.5c0 .1 0 .2.1.3h.7v1.1.6c0 .1 0 .3-.1.4h-.7c0 .1 0 .1-.1.2v.1c-.1-.4 0-.9 0-1.3s0-.9.1-1.4z" fill="#414a53"/><path d="M36.8 46.8c.4-.1.9-.1 1.3-.1.3.2.5.4.7.7a1.08 1.08 0 0 1 .3.7v.2.7c-.2 0-.5 0-.7.1 0-.4 0-.9-.3-1.3-.3-.5-.8-.8-1.3-1zm-12.5 0v-.1.4.6c.2 0 .5 0 .7-.2v2.7c0-.1-.1-.2-.1-.3-.2 0-.4.1-.7 0v-.8-.4-.2-.3c.1-.4.1-.9.1-1.4z" fill="#4a545d"/><path d="M23.9 46.9h.4v1.5c-.5.1-.9 0-1.4 0h-2.3v-1.5h3.3z" fill="#fcfdff"/><path d="M24.9 47c0-.1.1-.2.1-.2v.8c-.2.2-.5.2-.7.2v-.6c.2-.1.4-.2.6-.2z" fill="#53616c"/><path d="M42.4 46.8c.2 0 .5.1.7 0 .5.6.9 1.4.8 2.1-.2 0-.4.1-.6.1-.2-.2-.1-.5-.1-.8v.1c0-.1-.1-.2-.1-.4-.1-.3-.3-.6-.5-.8l-.2-.2c-.1 0 0 0 0-.1zm5.7 0h0 .4v.2.1h-.1c-.2.2-.3.5-.4.8v.2.1.5c-.2.2-.4.1-.6.2-.1-.7.2-1.5.7-2.1z" fill="#424b53"/><path d="M71.9 46.9a.76.76 0 0 1 .4-.2c.7.5 1 1.4 1 2.3h-.5c0-.3 0-.6-.1-.8s-.2-.5-.3-.7-.2-.3-.3-.4c-.1 0-.1-.1-.2-.2z" fill="#424c53"/><path d="M100.1 46.8h0c.6.6 1 1.5.8 2.4 0-.1 0-.2-.1-.2h-.6v-.6c0-.1-.1-.2-.1-.3-.1-.2-.2-.4-.3-.5-.1-.2-.3-.3-.4-.5.1-.4.5 0 .7-.3z" fill="#424b53"/><path d="M110 46.8c.4.1.8-.1 1.2 0-.5.3-1.1.6-1.3 1.2-.2 0-.4 0-.5-.1 0 0 0-.2-.1-.2.2-.3.4-.6.7-.9h0z" fill="#4b555e"/><path d="M48.7 47.2c.2-.2.4-.3.6-.3 0 .1 0 .1-.1.2.2 0 .4-.2.6-.1.5 0 1-.1 1.4 0 .4 0 .9-.1 1.3.1 0 .1 0 .2-.1.3l-.3.6c0 0-.1.2-.1.3-.4.1-.8 0-1.2 0h-2.6c-.1-.1-.1-.2-.1-.4.1-.3.2-.6.4-.8h.1c0 .1.1.1.1.1z" fill="#fdfdff"/><path d="M104.4 49.5c-.2-.9-.1-1.9.5-2.7.3.1.6.1.9.1-.3.4-.6.8-.6 1.3v.2.2.5c-.1 0-.1.1-.2.1v-.1h-.5c-.1.2-.1.3-.1.4z" fill="#424b53"/><path d="M76.7 47h.7c0 .1.1.3.1.4v.3.8.3c0 .1-.1.1-.1.2-.3 0-.5 0-.8.1.1-.7.1-1.4.1-2.1z" fill="#414a53"/><path d="M38.9 47.1c.5 0 1-.1 1.6 0 .5 0 .9.1 1.4 0 .2.1.4.2.6.1.2.2.4.5.5.8v.5h-3.6a.76.76 0 0 0-.2-.4c0-.3-.2-.5-.3-.7v-.3z" fill="#fcfdfe"/><path d="M68.2 47.1c.4-.1.9 0 1.3 0 .6.1 1.1 0 1.7 0l.1.1c.2-.1.5-.1.8 0 .1.1.2.3.3.4 0 .2.1.5.2.7-.5.1-1 0-1.5.1h-1.4-.9c-.1-.4-.3-.8-.5-1.1-.1-.1-.1-.2-.1-.2z" fill="#fdfdff"/><path d="M81.3 47.1c.1 0 .2-.1.2-.1l.1.1c.2 0 .3-.1.5-.1v.4c0 .1-.1.2-.2.3h-.6v-.6z" fill="#53616c"/><path d="M96.1 47c.5 0 1 .1 1.5 0h.9c.2 0 .5 0 .7.1s.4.3.6.4c.1.2.2.3.3.5 0 .2 0 .4-.2.4h-3.3c-.2-.2-.2-.5-.4-.7 0 0 0-.1-.1-.1-.1-.3 0-.4 0-.6z" fill="#fdfdff"/><path d="M52.7 47.2c.3.1.7-.1 1 0 .1 0 .2 0 .3-.1-.4.3-.9.8-.9 1.3-.1.6.3 1.2.8 1.5-.4.1-.8.2-1.2 0-.1 0-.1-.1-.2-.1-.1-.1-.1-.2-.2-.3a1.08 1.08 0 0 1-.3-.7v-.2c0-.2.1-.4.2-.6l.3-.6.2-.2z" fill="#4a555d"/><path d="M81.9 47.7c.1-.1.1-.2.2-.3v3.3c0-.2-.1-.3-.1-.5-.2 0-.4.1-.7.1 0-.5-.1-1-.1-1.5v-.2-.9h.7z" fill="#4a545d"/><path d="M20.4 49c.1-.5 0-.9.1-1.4v.7.5h3.7v.4h-1.4-1.7c-.2 0-.4 0-.6.1-.1.1-.1.3-.1.5-.3 0-.5.1-.8.1v-.3c0-.2.1-.3.1-.5.2 0 .5.1.7-.1z" fill="#605f64"/><path d="M72.4 47.6c.1.2.2.4.3.7v.3c-.7.1-1.5 0-2.2 0h-1.7c0-.1-.1-.1-.1-.2v-.1h.9H71c.5 0 1 0 1.5-.1 0-.2-.1-.4-.1-.6z" fill="#d5d5d7"/><path d="M96.1 47.6c.2.2.2.5.4.7h3.3c.2 0 .2-.2.2-.4 0 .1.1.2.1.3s0 .2-.1.3c-.3.1-.6.1-.9.1h-2.9c.1-.3 0-.6-.1-1z" fill="#ceced0"/><path d="M139 47.8h14.9c.2 0 .4 0 .4.2h-15.4c.1 0 .2-.1.3-.1-.1-.1-.1-.1-.2-.1z" fill="#3d464d"/><path d="M109.3 47.9s0-.1.1-.1c0 0 0 .2.1.2.2 0 .4 0 .5.1 0 .1 0 .1-.1.2h-.6v-.4z" fill="#61676d"/><path d="M116.3 47.8h11.4c.3 0 .7.1.9.4-.1.1-.1.1-.2.1h-11.2-1.2-.3c-.1-.3.3-.5.6-.5z" fill="#eff1f5"/><path d="M109.2 48.3c0-.1 0-.3.1-.4v.3h.6c0 .1 0 .2-.1.2-.1.2-.1.4-.3.5-.1 0-.2-.2-.2-.3v-.1c0 .1-.1.1-.2.2h-3.9-.1v-.2h1.5c.4 0 .8.1 1.2 0h1.1c.2 0 .2 0 .3-.2h0z" fill="#858688"/><path d="M138.9 48h15.4.1c-.1.1-.2.2-.3.2s-.1.1-.2.1-.1 0-.2.1c-.2-.1-.5-.1-.8-.1h-7.7-1-3.2-1.9c-.1 0-.2 0-.3-.1-.1 0-.2-.1-.3-.1.2 0 .3-.1.4-.1z" fill="#eee"/><path d="M43 48c0 .1.1.2.1.4v.4h-3.8c0-.2-.1-.3-.1-.5v-.2c.1.1.1.3.2.4H43V48z" fill="#9a999e"/><path d="M48.1 48c0 .1 0 .3.1.4h2.6c.4 0 .8.1 1.2 0a.76.76 0 0 1 .2-.4c-.1.2-.1.4-.2.6h-3.9c0-.2-.1-.3-.1-.5 0 0 0-.1.1-.1z" fill="#d8d8da"/><path d="M154.4 48c0 .4.1.8 0 1.2-.1.2-.4.2-.6.2h-5.9-8.2c-.3 0-.6.1-.8.2 0-.1 0-.1.1-.2h-.5c0-.1-.1-.2-.1-.2.2-.2.5-.4.8-.5h4.9 9.4c.2 0 .4.1.6.1 0-.2-.1-.5.1-.7 0 0 .1 0 .2-.1z" fill="#4d555d"/><path d="M48 48.3v-.1c0 .2.1.3.1.5H52v.2h-1.3-2.5c-.3-.1-.2-.5-.2-.6z" fill="#969498"/><path d="M128.6 48.2c0 .1 0 .2.1.2-.4 0-.8 0-1.2.1h-5.2-5.9c-.2-.1-.3-.1-.4-.2h1.2 11.2c.1.1.1 0 .2-.1z" fill="#677178"/><path d="M138.7 48.2c.1 0 .2 0 .3.1.1 0 .2 0 .3.1v.1.1h5.3 8.2c.3 0 .7.1.9-.1 0 0 .1-.1.2-.1v.5l-.1-.1-.1-.1h-3.1-10.9-2.2-3.4v-.2h4.7c-.1-.2-.1-.3-.1-.3z" fill="#dbdbdd"/><path d="M153.9 48.3c.1 0 .1-.1.2-.1-.2.2-.1.4-.1.7-.2 0-.4-.1-.6-.1H144h-4.9-5.1v-.2h.6 19.2s0 .1.1.1v-.4z" fill="#858689"/><path d="M22.9 48.3h1.4v.3h-3.6s0-.1-.1-.1v-.1c.8-.1 1.5-.1 2.3-.1z" fill="#dadadb"/><path d="M39.2 48.2c0 .2.1.3.1.5h3.8v-.4-.1c.1.2-.1.6.1.8.2 0 .4-.1.6-.1 0 .4-.1.8-.3 1.1v-.2c-.2 0-.4 0-.6-.1v-.2c0-.1.1-.3 0-.4-.2-.1-.5 0-.8 0h-2.6c-.2 0-.4.2-.7.2-.2 0-.4 0-.5.1.1-.2.1-.3.1-.5.2-.1.5-.1.7-.1.1-.1.1-.3.1-.6z" fill="#605f65"/><path d="M48 48.8v-.5c0 .2-.1.5.2.5h2.5H52c0 .3.1.6.2.8h-3.5c-.2 0-.4 0-.6.1-.1.2.1.4.1.5.1.2.3.4.5.5a4.44 4.44 0 0 0 1.1.8c.9.5 1.8.7 2.7 1l2.5.4c1.1.2 2.3.2 3.4.3h3.3c2-.1 4-.2 6-.6 1.1-.2 2.2-.6 3.2-1.1.3-.2.6-.4.8-.6.3-.2.4-.5.6-.8.1-.2.1-.4.1-.5h-3.5c-.2 0-.3 0-.5.1.1-.2.2-.4.2-.6h4v.9h.4v.2c-.3.8-1 1.3-1.7 1.7-1.2.7-2.6 1-3.9 1.2-1.1.2-2.2.3-3.3.4-.6.1-1.3 0-1.9.1-3.1.1-6.2 0-9.3-.5a15.83 15.83 0 0 1-3.1-.9c-1-.5-2-1.1-2.4-2.2 0-.1.1-.1.1-.2.1 0 .3 0 .4-.1.1-.5.1-.7.1-.9z" fill="#65696f"/><path d="M72.7 48.2c.1.3.1.5.1.8h.5c0 .3-.1.6-.2.8v-.2c-.1 0-.3.1-.4 0v-.9-.2-.3z" fill="#545b62"/><path d="M144.2 48.3c.3-.1.7 0 1 0h7.7c.3 0 .5 0 .8.1-.3.2-.6.1-.9.1h-8.2c-1.8-.1-3.5 0-5.3 0v-.1h4.6c.1 0 .2 0 .3-.1z" fill="#b9babe"/><path d="M20.5 48.3l.1.1s0 .1.1.1h3.6v.2h-3.7c-.1-.1-.1-.2-.1-.4z" fill="#969497"/><path d="M100.1 48.3v.6h.6c0 .1 0 .2.1.2 0 .3-.1.5-.2.8 0-.1 0-.1-.1-.2h-.5c0-.1 0-.2-.1-.3-.3-.1-.6 0-1 0h-2.4c-.3 0-.5.1-.7.1h-.7c.1-.2.1-.3.2-.5h.8c.1-.1.1-.3.1-.4h2.9c.3 0 .6 0 .9-.1.1 0 .1-.1.1-.2z" fill="#65656a"/><path d="M105.2 48.3h4v.1c-.1.1-.1.2-.2.2h-1.1-1.2-1.5v-.3z" fill="#d2d2d2"/><path d="M115.6 48.3h.3c.1.1.3.1.4.2-.3 0-.5 0-.8.1.1-.1.1-.2.1-.3z" fill="#444d54"/><path d="M139.2 48.3c.6.1 1.2 0 1.9 0h3.2c-.1.1-.3.1-.4.1-1.6 0-3.1 0-4.7-.1h0z" fill="#a1a5a8"/><path d="M77.5 48.4h0c.1 0 .1.1.1.1h3.6v.2h-3.7-.1c.1-.1.1-.2.1-.3z" fill="#969497"/><path d="M68.7 48.4c0 .1.1.1.1.2h1.7c.7-.1 1.5 0 2.2 0v.2h-4v-.4z" fill="#969498"/><path d="M109.5 48.9a.55.55 0 0 0 .3-.5c-.1.6.2 1.3.7 1.7.4.3 1 .5 1.5.7-.6-.1-1.2 0-1.9-.1h0c-.2-.1-.3-.3-.5-.5-.1-.2-.3-.4-.4-.7 0-.3-.2-.6 0-.9.1.1.2.3.3.3z" fill="#4b555d"/><path d="M127.5 48.5c.4-.1.8 0 1.2-.1v.9c-.2 0-.5 0-.7-.1 0-.2.1-.5-.1-.6-.1 0-.2-.1-.4-.1z" fill="#4a535b"/><path d="M109.3 48.5c0 .1 0 .1 0 0-.1.4 0 .7 0 1-.4-.1-.9-.1-1.4-.1H106c-.2 0-.5 0-.7.1v-.2l-.1.1v-.7h3.9c.1 0 .1-.1.2-.2zm6.3.1c.3-.1.5-.1.8-.1 0 0 0 .1-.1.2h11.2c.1 0 .3 0 .4-.1.2.1.1.4.1.6v.2c-.2-.3-.5-.1-.7-.1h-1c-.4 0-.7.1-1.1 0h-1-.7l-.1-.1c-.4-.3-1-.4-1.5-.4h-5.2c-.3 0-.7.1-.9.4-.1 0-.2.1-.2.1v-.7z" fill="#656469"/><path d="M116.4 48.5h5.9 5.2c.1 0 .2 0 .4.1-.1.1-.3.1-.4.1h-11.2c0 0 0-.1.1-.2z" fill="#93959a"/><path d="M133.9 48.6h0v.2c0 .2 0 .4-.1.6v.1h-.7v-.3c0-.1 0-.1.1-.2h.7v-.4z" fill="#50575f"/><path d="M77.5 48.7s.1.1 0 0v.6c0 .1-.2.1-.3.1-.2 0-.4 0-.6-.1V49c.2-.2.5-.1.8-.1 0 0 .1-.1.1-.2z" fill="#4f565e"/><path d="M105.2 48.7h0c.1.2.1.5.1.7v.4c-.3 0-.6-.2-.8.1 0-.1-.1-.2-.1-.4v-.2h.5v.1c.1 0 .1-.1.2-.1.1-.2.1-.4.1-.6z" fill="#575e65"/><path d="M48 48.8v.6c-.1 0-.3 0-.4.1 0 .1-.1.1-.1.2-.1-.2-.1-.5-.1-.7.1-.1.4 0 .6-.2z" fill="#4f575e"/><path d="M77.6 48.8h3.7c0 .5 0 1 .1 1.5.2 0 .4-.1.7-.1 0 .2.1.3.1.5v.2c-.3 0-.6.1-.8 0v-.7-.5H78c-.2 0-.3.1-.3.3v2.1c0-.2 0-.3.1-.5v.7l.2.2c.3 0 .6.1.9.1h8.7c.8-.1 1.6 0 2.4 0l2.2-.1c1 0 2.1-.1 3.1-.2 1.1-.2 2.3-.4 3.3-.8.1 0 .2-.1.3-.1.2-.1.3-.2.5-.3l.6-.6c.2-.2.2-.5.3-.7 0 .1 0 .2.1.3h.5c0 .1 0 .1.1.2-.3.9-1.1 1.6-2 2-1.4.6-2.8.8-4.3.9-2-.2-3.8-.2-5.6-.2-3.5.1-7 .1-10.5 0-.5 0-1.1 0-1.6-.3-.2-.1-.3-.4-.3-.7v-2.7c.2 0 .4 0 .6.1.1 0 .2 0 .3-.1-.1-.1 0-.3 0-.5z" fill="#656970"/><path d="M134 48.8h5.1c-.3.1-.5.3-.8.5-.6-.2-1.3 0-1.9-.1h-2.1c-.1 0-.2.1-.3.2-.1-.2 0-.4 0-.6z" fill="#625f64"/><path d="M115.8 49.2c.2-.2.6-.4.9-.4h5.2c.5 0 1.1.1 1.5.4h-.9-6c-.2.1-.5.2-.7 0z" fill="#404952"/><path d="M20.6 49.3c.2-.1.4-.1.6-.1h1.7 1.4v.8c0-.1 0-.3-.2-.3h-2.9-.5c-.1.1-.2.2-.2.3v-.2c0-.2 0-.4.1-.5z" fill="#6f6e73"/><path d="M134.2 49.2c.7-.1 1.4 0 2.1 0 .6.1 1.3-.1 1.9.1-.2.3-.2.6-.2.9 0-.1-.1-.2-.1-.3h-1-2.5c-.2 0-.3.1-.4.2v-.6-.1c0-.1.1-.2.2-.2z" fill="#747378"/><path d="M38.9 49.4c.2 0 .4-.2.7-.2h2.6.8c.2.1.1.3 0 .4 0 .1-.1.2-.1.2-.2 0-.3-.1-.5-.1h-4.2c.1-.1.2-.2.2-.4.2.2.3.2.5.1z" fill="#727176"/><path d="M115.6 49.3c.1 0 .2-.1.2-.1.2.1.5.1.7.1h6 .9l.1.1c.1.2.2.4.3.7-.2 0-.4.1-.5.1-.1-.2-.2-.4-.5-.5-.4-.1-.7 0-1.1 0H116a.78.78 0 0 1-.4-.4z" fill="#4e5f69"/><path d="M128 49.2c.2.2.4.2.7.1v2.5c0 .3-.1.6-.4.8s-.7.2-1.1.2h-11.1c-1.6 0-3.2 0-4.8-.1-1.5-.2-3.1-.4-4.5-1-.9-.4-1.8-1-2.2-1.9.2-.3.5-.1.8-.1v-.4l.1-.1v.2a1.08 1.08 0 0 0 .3.7c.2.2.4.5.6.6.3.2.6.4.9.5a9.83 9.83 0 0 0 1.6.5c.9.2 1.8.4 2.8.3.2 0 .4 0 .5.1.7.1 1.4 0 2.1 0h13.4c.2 0 .4 0 .4-.2s.1-.4.1-.6c.1-.7 0-1.3 0-2-.2.1-.2 0-.2-.1z" fill="#656971"/><path d="M133.1 49.2h0v.2h.7v.6.9c0 .4-.1.8 0 1.1.1.2.3.2.5.2h17.6 2.8.1v-.5h.1c0 .2 0 .4.1.6.1.1.2.2.2.3.1-.3.1-.7 0-1.1l.1-.1h0c0 .4 0 .8-.1 1.2 0 .1-.2.2-.3.2h-20.3c-.4 0-.9 0-1.3-.1-.4-.2-.5-.6-.5-1 .3-.7.3-1.6.3-2.5z" fill="#656a70"/><path d="M123.5 49.4c.2-.1.4-.1.7 0h1c.4 0 .7-.1 1.1 0h1c.2 0 .6-.1.7.1 0 .7.1 1.3 0 2 0-.5 0-.9-.1-1.4h-3.4-.6c-.1.2-.1.5-.1.7v.3c0 .1-.1.2-.2.4-.6 0-1.2-.1-1.8 0h-3c-.2 0-.3-.1-.4-.1h3.3c.4 0 .9.1 1.3-.1h.1c.2 0 .4 0 .6-.1.1-.2.1-.4.1-.6v-.5c-.1-.3-.1-.5-.3-.7z" fill="#7a797e"/><path d="M138 50.2c.1-.3.1-.6.2-.9 0 .1 0 .2.1.2h.5c0 .1 0 .1-.1.2-.1.2-.2.3-.2.5-.1.2 0 .5 0 .7h-.6v.2-.1-.1c.1-.2.1-.5.1-.7z" fill="#64696f"/><path d="M68.6 49.4c.2 0 .3-.1.5-.1h3.5c0 .2 0 .4-.1.5l-.1-.1h-3.6c-.3 0-.5.2-.8.2h-.9c.2-.1.3-.3.5-.5.3.1.6.1 1 0z" fill="#727176"/><path d="M95.9 49.6c.3 0 .5-.1.7-.1H99h1c-.1.2-.1.5-.3.7 0-.1-.1-.2-.1-.2-.5 0-.9.1-1.4 0H96c-.3-.2-.7-.1-1-.1.1-.1.2-.2.2-.3h.7z" fill="#7a7b80"/><path d="M105.4 49.5c.2 0 .4-.1.7-.1h1.9c.5 0 .9 0 1.4.1.1.2.2.5.4.7-.3-.1-.6-.1-.9 0h-2c-.4 0-.8 0-1.1.1-.3-.3-.4-.5-.4-.8z" fill="#7d7d82"/><path d="M19.6 49.6h0s0 .2.1.3c.3 0 .5 0 .8-.1v.2.5 1.6c0 .1 0 .3.2.3.1.1.3 0 .4.1h4.2 5.9 1.3l4.2-.1c1.5-.1 3.1-.3 4.5-.9.3-.1.6-.3.9-.5s.5-.6.7-.9c0-.1.1-.1.1-.2v.2c.2 0 .4 0 .6.1v.2a2.73 2.73 0 0 1-.9 1.2c-.6.6-1.5.8-2.2 1-1.8.5-3.8.6-5.6.7l-4.4.1h-9.3c-.4 0-.8 0-1.2-.3-.2-.1-.4-.4-.4-.7V51c.1-.7.1-1.1.1-1.4z" fill="#656971"/><path d="M77.5 49.9c0-.2.1-.3.3-.3h3.4v.5h-1.6c-.6 0-1.1-.1-1.7 0-.1 0-.2 0-.3.1-.1.3-.1.6 0 .9v.4c0 .2 0 .3-.1.5v-2.1z" fill="#7e7f83"/><path d="M48.2 49.6c.2-.1.4-.1.6-.1h3.5c0 .1.1.2.2.3 0 .1.1.1.1.2-.2 0-.4-.1-.6-.1h-2.3-1.2v.2c-.2-.1-.4-.3-.3-.5z" fill="#7b7c80"/><path d="M20.5 50c.1-.1.1-.2.2-.3h.5 2.9c.2 0 .1.2.2.3v.4c0-.1-.1-.2-.1-.2-.5-.1-1 0-1.5 0h-2.1c0 .1-.1.2-.1.3V50z" fill="#808085"/><path d="M68 50c.3 0 .5-.2.8-.2h3.6l.1.1c-.2.3-.3.6-.6.8 0-.1.1-.2.1-.3h-1.6-2.3c-.5-.1-1 0-1.5 0 .2-.1.3-.2.5-.3.3-.1.6-.1.9-.1z" fill="#85878c"/><path d="M38.2 49.9h4.2a.9.9 0 0 1 .5.1c-.2.4-.4.7-.7.9v-.3h-3.5c0-.1.1-.2.2-.3H38c0-.2.1-.3.2-.4z" fill="#8a8c91"/><path d="M24.3 50h.7c0 .1.1.2.1.3v.5c-.3-.1-.5 0-.8 0v-.1-.2-.5z" fill="#5a636b"/><path d="M52.4 49.9c.1 0 .1.1.2.1.3.3.8.1 1.2 0 .5.3 1 .5 1.6.7-.5.1-1 0-1.5.1.1.1.2.2.4.3h-.2-.1l-.6-.3c-.3-.2-.6-.4-.8-.7-.1-.1-.2-.1-.2-.2z" fill="#656e75"/><path d="M134.3 49.9h2.5 1c0 .1.1.2.1.3v.7c0-.1-.1-.2-.1-.3-.9-.1-1.7 0-2.6 0h-1.3c-.1.1-.1.3-.1.4v-.9c.2-.1.4-.2.5-.2zm-85.9.1h1.2 2.3c.2 0 .4.1.6.1.2.3.5.5.8.7-.3-.1-.6-.4-.9-.3h-3.6s0 .1-.1.2l-.5-.5c.2-.1.2-.2.2-.2zm46.2.3c.2-.1.3-.3.5-.4.3 0 .7 0 1 .1.7-.1 1.5 0 2.2 0h1.4c0 .1.1.2.1.2l-.6.6c.1-.1.1-.3.2-.4h-3.8v-.2c-.3 0-.7.1-1 .1z" fill="#8d8e93"/><path d="M77.9 50.1c.6-.1 1.1 0 1.7 0h1.6v.7c0-.1-.1-.1-.1-.2h-2.5c-.3 0-.7 0-1 .1v.3.1c0-.3-.1-.6 0-.9.1-.1.2-.1.3-.1z" fill="#919498"/><path d="M123.8 50v.5h-.6v-.3c.2-.1.4-.1.6-.2z" fill="#656970"/><path d="M20.6 50.1h2.1 1.5c0 .1.1.2.1.2v.2c-.1-.1-.2-.1-.3-.1h-1.8-1.6c-.2.5-.1 1-.1 1.6-.1-.5 0-1.1 0-1.6 0-.1.1-.2.1-.3z" fill="#8e9195"/><path d="M108.8 50.1h.9c.1.2.3.3.5.5-.7-.1-1.5 0-2.2 0h-1.5c-.1 0-.1.2-.2.2l-.6-.6c.4-.1.7-.1 1.1-.1h2z" fill="#93959a"/><path d="M124 50.1c.2-.1.4 0 .6 0h3.4c.1.5.1.9.1 1.4 0 .2 0 .4-.1.6V51v-.3c-.2-.1-.5 0-.7 0H125c-.4 0-.8-.1-1.1.2 0-.3 0-.6.1-.8z" fill="#919297"/><path d="M37.9 50.2h.9c0 .1-.1.2-.2.3h3.5v.3c-.3.2-.6.4-.9.5 0-.1 0-.2-.1-.2h-2.5c-.3 0-.6 0-.9-.1.2-.1.3-.2.4-.3s.1-.2.2-.3c-.4 0-.7.1-1.1.1.4-.1.5-.2.7-.3z" fill="#a5aaaf"/><path d="M66.6 50.3c.5 0 1-.1 1.5 0h2.3H72c0 .1-.1.2-.1.3-.2.2-.5.5-.8.6.1-.1.2-.2.2-.3-.3-.1-.7 0-1.1-.1h-1.6c-.5 0-1 0-1.5.1v-.1c.2-.1.3-.2.5-.3-.5 0-1.1.1-1.6 0 .1.1.4 0 .6-.2z" fill="#9ca1a7"/><path d="M94.6 50.3c.4 0 .7-.1 1.1-.1v.2l-.1.1c-.4-.1-.9 0-1.3 0 0 0 .2-.1.3-.2z" fill="#b0b5b8"/><path d="M95.6 50.4h3.8c-.1.1-.1.3-.2.4s-.3.2-.5.3c.1-.1.1-.2.2-.3-.3-.1-.6 0-.9 0h-1.3c-.4 0-.9.1-1.3-.1l.2-.2c0 0 0 0 0-.1z" fill="#9ca1a6"/><path d="M123.3 50.4h.6c0 .2 0 .4-.1.6-.2 0-.4 0-.6.1 0-.1.1-.4.1-.7z" fill="#4e5860"/><path d="M20.6 50.5h1.6H24c.1 0 .2.1.3.1v.1.1h0-.5-3.1v.3c0 .4-.1.7 0 1.1.1.1.3.2.5.2-.1 0-.3 0-.4-.1s-.1-.2-.2-.3c0-.5-.1-1 0-1.5z" fill="#9ca1a7"/><path d="M37.4 50.5c.4 0 .7 0 1.1-.1-.1.1-.1.2-.2.3-.4-.1-.9 0-1.3 0a.76.76 0 0 0 .4-.2z" fill="#cdcfd2"/><path d="M48.9 50.5h3.6c.3 0 .6.3.9.3l.6.3c-.5 0-1-.1-1.4-.1-.9 0-1.8-.1-2.7.1 0 .1.1.2.1.3a4.44 4.44 0 0 1-1.1-.8c-.1 0 0 0 0-.1z" fill="#a2a7ad"/><path d="M94.2 50.5c.4 0 .9-.1 1.3 0l-.2.2h0c-.5-.1-1 .1-1.4 0 .1 0 .2-.1.3-.2z" fill="#ced0d3"/><path d="M134.1 50.6c.4-.1.9 0 1.3 0h2.6c0 .1 0 .2.1.3v.1c-.9-.1-1.7 0-2.6-.1h-1.4c0 .3-.1.7 0 1 .1.2.3.2.5.2h18.6 1.7v.1h-2.8-17.6c-.2 0-.5 0-.5-.2-.1-.4 0-.8 0-1.1-.1-.1 0-.2.1-.3z" fill="#a1a6ab"/><path d="M106.3 50.8c0-.1 0-.3.2-.2h1.5c.7 0 1.5-.1 2.2 0h0c.2.2.5.3.7.4h-2.3-1.4v.2c-.3.1-.6-.1-.9-.4z" fill="#a5abb0"/><path d="M123.9 50.8c.3-.3.7-.2 1.1-.2h2.3.7v.3h-3.9c-.1 0-.2.1-.2.1-.1 0 0-.1 0-.2z" fill="#a1a6ac"/><path d="M65.9 50.6h1.6c-.2.1-.3.2-.5.3h0c-.7-.1-1.5.1-2.3 0 .4 0 .8-.1 1.2-.3z" fill="#c4c9cc"/><path d="M77.6 50.7c.3-.1.7-.1 1-.1h2.5c0 .1.1.1.1.2v.2h-3.7c.1-.1.1-.2.1-.3z" fill="#a2a7ad"/><path d="M24.3 50.7h.8v.2c-.3 0-.6.1-.8-.1v-.1z" fill="#717a80"/><path d="M37 50.7c.4.1.9-.1 1.3 0-.1.1-.3.2-.4.3-.9.5-1.8.7-2.8.8l-2.5.2h-6.8c-.3 0-.6-.1-.9-.2.3-.2.6-.1 1-.2l2.6-.2h4.3c1.4-.1 2.9-.1 4.2-.7zm56.9 0c.5.1 1-.1 1.4 0-.2.1-.4.2-.5.4-1 .5-2.1.7-3.3.8-.8.1-1.5.1-2.2.1h-5.5c-.6 0-1.2 0-1.7-.2.1-.1.2-.1.3-.1l3.9-.3h.2l4.6-.1c.9-.1 1.8-.3 2.8-.6z" fill="#eeefee"/><path d="M110.2 50.7c.6.1 1.2 0 1.9.1l1.8.3c.1 0 .2 0 .3-.1h1 0-1s.1.1.2.1c-.3.1-.6 0-1 0H111h-.1c-.3-.1-.5-.2-.7-.4z" fill="#697278"/><path d="M81.3 50.8c.3.1.6 0 .8 0 0 .2.2.4.5.5-.4 0-.7.1-1.1.1-.1-.1-.2-.2-.3-.4.1-.1.1-.2.1-.2z" fill="#858a91"/><path d="M94.7 51.1c.2-.1.4-.2.5-.4h0c.4.2.9.1 1.3.1h1.3.9c0 .1-.1.2-.2.3-.1 0-.2.1-.3.1 0 0 0-.1-.1-.1h-2.8s-.3.2-.6 0zm-74.1-.3h3.1.5c0 .1.1.3.1.4v.1c-.1-.1-.2-.2-.4-.2h-3.4c.1 0 .1-.2.1-.3z" fill="#abb0b6"/><path d="M24.3 50.8c.2.2.5.1.8.1.1.1.1.2.2.2h-.9c-.1 0-.1-.1-.1-.3h0z" fill="#868e91"/><path d="M53.8 50.9c.5-.1 1 0 1.5-.1l1.1.3c-.6.1-1.2.1-1.8.2.2.1.5.2.7.2.2.1.5.1.7.2a22.72 22.72 0 0 0 5.2.3c1.3 0 2.5-.1 3.7-.4.7-.1 1.4-.3 2-.6h0v.1c-.4.2-.8.3-1.2.4-.3.1-.6.1-.9.2L63 52c-.6.1-1.2 0-1.8.1h-2.5c-.7 0-1.4-.1-2.1-.2s-1.4-.3-2.1-.5c-.2-.1-.4-.1-.6-.2h.2c0-.1-.1-.2-.3-.3z" fill="#8c9298"/><path d="M64.8 51c.7.1 1.5-.2 2.3 0-.6.3-1.3.5-2 .6-1.2.2-2.5.3-3.7.4-1.7 0-3.5 0-5.2-.3.3-.2.7-.1 1-.1.4 0 .8 0 1.3-.1.3 0 .7 0 1-.1 1.6 0 3.5-.1 5.3-.4z" fill="#eeefee"/><path d="M67.1 51.1c.5-.2 1-.1 1.5-.1h1.6c.4 0 .7 0 1.1.1 0 .1-.1.2-.2.3-1 .6-2.1.9-3.2 1.1-2 .4-4 .5-6 .6h-3.3l-3.4-.3-2.5-.4c-.9-.2-1.9-.5-2.7-1 0-.1-.1-.2-.1-.3.9-.1 1.8 0 2.7-.1.5 0 1 .1 1.4.1h.1c.2.1.4.2.6.2l2.1.5c.7 0 1.4.2 2.1.2.8.1 1.7.1 2.5 0 .6-.1 1.2 0 1.8-.1.6 0 1.2-.1 1.8-.3.3-.1.6-.1.9-.2.4 0 .8-.2 1.2-.3z" fill="#b4bbc1"/><path d="M124.1 51h3.9v1.1c0 .2-.2.2-.4.2h-13.4-2.1c-.1-.1-.3-.1-.5-.1a13.33 13.33 0 0 1-2.8-.3c-.6-.1-1.1-.3-1.6-.5v-.2h1.4 2.3.1c.2.1.5.3.7.3.5-.1 1.1 0 1.7 0 .5 0 1 0 1.4.1l.1.1c-.8 0-1.6-.1-2.4 0 .8.2 1.6.2 2.4.3 1.5.1 3.1 0 4.6 0h3c.2 0 .4 0 .7-.1h.2c.2-.1.2-.2.3-.4.1-.1.1-.2.2-.4 0-.1.1-.1.2-.1z" fill="#b4bbc0"/><path d="M134 51h1.4c.9.1 1.7 0 2.6.1v.1c.1.2.2.5.4.4h17 0v.1h-17.1c.3.2.8.3 1.2.3h3.5 4.8 7v.3c-.6-.1-1.1 0-1.7 0h-18.6c-.2 0-.4 0-.5-.2-.1-.4 0-.8 0-1.1z" fill="#b4bbc1"/><path d="M138.1 50.9h.6c.1.3.5.4.8.4h5.8 5.2 4.6c.2 0 .4 0 .4.2h-17c-.2 0-.4-.2-.4-.4v-.2z" fill="#4f585f"/><path d="M77.6 51c1.2-.1 2.4 0 3.7 0 .1.1.1.3.3.4.4 0 .7-.1 1.1-.1.5.1 1 0 1.4.1-.2 0-.4.1-.6.1-.6 0-1.2.1-1.8.2.1.1.2.2.3.2.6.2 1.2.2 1.7.2h5.5l2.2-.1c1.1-.1 2.2-.3 3.3-.8.3.1.6 0 .9 0h2.8s0 .1.1.1c-1.1.5-2.2.7-3.3.8l-3.1.2c-.7.1-1.4 0-2.2.1h-2.4-8.7c-.3 0-.6 0-.9-.1l-.2-.2v-.7-.4c-.1.1-.1 0-.1 0zm-42.5.9c1-.1 1.9-.3 2.8-.8.3.1.6.1.9.1h2.5c0 .1 0 .2.1.2-1.4.6-3 .8-4.5.9h-3.3c-.3 0-.7 0-.9.2h-1.3-5.9-4.2c-.2-.1-.3-.1-.5-.2-.1-.3 0-.7 0-1.1h3.4c.2 0 .3.1.4.2.1 0 .1.1.2.1.3 0 .6-.1 1-.1.2 0 .3 0 .5.1-.4.2-.9.1-1.4.2.1.1.2.2.3.2.3.1.6.2.9.2h6.8c.5-.1 1.4-.2 2.2-.2z" fill="#b4bbc0"/><path d="M115.2 51.1h.3.7-1c.1.1.1.2.1.2h3.1c.1 0 .3.1.4.1h3c.6 0 1.2.1 1.8 0-.1.1-.2.3-.3.4v-.2h-2.7c-.7 0-1.4-.1-2 0-.9 0-1.7 0-2.6-.1h-1.3c-.5-.1-1-.1-1.4-.1h-1.7c-.3.1-.5-.2-.7-.3h2.4 1 .8c.1.1.1 0 .1 0h0z" fill="#959ca0"/><path d="M54.6 51.3c.6-.1 1.2-.1 1.8-.2.5.1 1 .1 1.5.2l-2 .1c-.2 0-.4 0-.7.1-.1-.1-.3-.1-.6-.2z" fill="#aeb1b6"/><path d="M114.1 51.1h1v.1h-.8s-.1-.1-.2-.1z" fill="#31322f"/><path d="M116.2 51.1h5.5 1.1s.1.1.2.1c-.4.1-.9 0-1.3.1h-3.3-3.1v-.1c.3-.1.6-.1.9-.1z" fill="#323230"/><path d="M24.4 51.3h.9c.1 0 .2.1.3.1-.3 0-.6.1-1 .1l-.2-.2h0z" fill="#a0a5a9"/><path d="M56 51.4c.7 0 1.3-.1 2-.1.4 0 .9.1 1.3.1-.3.1-.7.1-1 .1-.4 0-.8 0-1.3.1-.3 0-.7 0-1 .1-.2 0-.5-.1-.7-.2.3-.1.5-.1.7-.1z" fill="#d3d5d7"/><path d="M83.4 51.5c.2 0 .4-.1.6-.1h2.4-.2l-3.9.3c-.1 0-.2.1-.3.1s-.2-.1-.3-.2c.5-.1 1.1-.1 1.7-.1z" fill="#d1d3d6"/><path d="M26.1 51.4h2.5c-.9.2-1.8.2-2.6.2-.3 0-.7 0-1 .2-.1-.1-.2-.1-.3-.2.4-.1.9 0 1.4-.2z" fill="#d4d5d7"/><path d="M114.8 51.5h1.3c.9.1 1.7 0 2.6.1.7 0 1.3.1 2 0h2.7v.2h-.2c-.4-.1-.8-.1-1.1-.1-.9 0-1.7 0-2.6-.1-1.6.1-3.1.1-4.7-.1h0z" fill="#c8cace"/><path d="M112.5 51.6c.8-.1 1.6 0 2.4 0l4.6.1 2.6.1c.4 0 .8 0 1.1.1-.2 0-.4.1-.7.1h-3-4.6c-.9-.2-1.7-.2-2.4-.4z" fill="#eeefee"/><path d="M138.4 51.6h17.1l-.1.1c-.1.1-.2.1-.3.2h-.1v.5h-.1v-.1-.3h-7-4.8-3.5c-.4-.1-.8-.1-1.2-.4z" fill="#eee"/><path d="M155.1 51.9c.1 0 .2-.1.3-.2.1.3.1.7 0 1.1-.1-.1-.2-.2-.2-.3-.1-.2-.1-.4-.1-.6z" fill="#424b53"/><path d="M32.6 52.4c.3-.2.6-.1.9-.2h3.3c-1.4.2-2.8.2-4.2.2z" fill="#9da4a8"/><path d="M145.1 53.2h9.6 0c-.2 0-.3.1-.4.3l-4.7 5.5c-.6.6-1.1 1.3-1.7 1.9-.1.1-.2.2-.3.2H140h-1.4l6.7-7.8c0 0-.1-.1-.2-.1z" fill="#ce312a"/><path d="M145.1 53.2c.1 0 .1 0 .2.1l-6.7 7.8h1.4 7.6c.1 0 .2-.1.3-.2.5-.7 1.1-1.3 1.7-1.9l4.7-5.5c.1-.1.3-.2.4-.3a1.38 1.38 0 0 1-.3.4l-5.2 6c-.5.5-.9 1-1.4 1.6h-9.6c.1-.2.2-.3.4-.5l6.5-7.5z" fill="#db4210"/></svg>