<svg xmlns="http://www.w3.org/2000/svg" baseProfile="tiny" viewBox="0 0 200 100" overflow="visible" fill-rule="evenodd" xmlns:v="https://vecta.io/nano"><path fill="#005a9b" d="M100.72 25.86c35.87 0 62.42 9.94 62.22 23.98-.21 12.3-26.34 24.29-62.22 24.29S37.07 65 37.07 50.76c.09-13.94 27.77-24.9 63.65-24.9h0z"/><path fill="#fff" d="M100.51 72.09c35.87 0 60.17-11.58 60.17-22.65 0-10.97-24.49-21.62-60.37-21.62-30.75 0-60.78 9.53-60.98 22.76-.11 12.38 25.31 21.51 61.18 21.51h0z"/><path fill="#005a9b" d="M100.31 70.34c35.87 0 58.53-11.28 58.53-20.5 0-9.94-22.24-20.19-58.11-20.19S41.37 40.11 41.37 50.36c0 10.97 23.06 19.98 58.94 19.98h0z"/><path d="M116.91 35.39c-.62 0-4.1 1.03-8.61 1.03-9.74 0-16.4-2.56-23.98-2.56-7.69 0-13.43 3.69-13.43 8.4 0 3.28 2.46 4.41 4.2 4.41 3.18 0 7.17-3.49 7.17-6.15 0-.21-.21-.82-.41-.82-.93 0-2.15 3.59-5.33 3.59-1.54 0-2.15-1.43-2.15-2.05 0-1.84 2.25-5.64 9.33-5.64 3.08 0 6.46.62 9.84 1.33-3.18.93-6.15 4.61-9.33 8.71-2.66.31-5.02.72-6.05 1.94-.93 1.03-.31 1.74.21 1.23.82-.93 2.66-1.33 4.71-1.64-4.1 5.43-8.2 10.86-12.91 10.86-2.56 0-3.59-1.84-3.59-3.18 0-2.36 2.25-4.2 3.59-4.92.82-.31.93-1.23-.62-1.23-3.38 0-6.25 3.8-6.25 6.77 0 4.1 2.97 6.87 6.97 6.87 7.07 0 11.58-8.41 16.09-15.48 2.25-.21 4.51-.41 6.36-.82.62.93 1.54 1.33 1.84 1.33s.41-.31.41-.51c0-.1-.72-.31-1.23-1.13 1.64-.51 2.66-1.33 2.66-2.77 0-.82-.62-1.84-1.84-1.84-1.64 0-2.46 1.43-2.46 2.87 0 .31.1.62.1.93-1.33.21-3.08.31-4.92.51 2.25-3.49 4.51-6.36 7.07-7.48l-.31-.93c5.64 1.33 11.17 3.08 15.07 3.08 5.02 0 8.82-2.25 8.82-3.9.01-.29-.5-.81-1.02-.81h0zM93.33 44c0-.82.41-1.84 1.33-1.84.41 0 .72.51.72.72 0 .82-.82 1.43-2.05 1.74V44h0zm6.36 17.94c2.05-3.28 5.74-9.12 5.74-10.25 0-.51-.31-.82-.82-.82-1.33 0-4.41 3.18-5.95 5.53-2.56 4-4.92 5.95-7.58 5.95-2.87 0-4.41-1.84-4.81-3.8-.72.82-1.64 1.74-2.46 2.25-.51.31-1.43-1.03-.82-1.54 1.33-1.03 2.25-2.25 3.08-3.69 1.64-3.18 4.2-6.87 7.89-6.87 1.23 0 1.74 1.23.62 1.64-3.8 1.23-5.23 4.61-5.23 6.77 0 1.54.82 2.36 2.05 2.36 3.59 0 6.56-5.12 5.02-8.92-.31-.93 1.43-2.15 1.94-1.43.82.82 1.13 2.87.93 3.8 1.64-1.64 4.1-4.81 6.66-4.81 1.23 0 2.15.93 2.15 1.84.1.51.1 1.23-.1 1.64 1.33-1.84 2.97-3.28 4.61-3.28 1.43 0 2.56 1.03 2.56 2.36 0 1.23-1.03 2.56-2.25 2.56-1.13 0-1.94-.93-1.64-2.05 0-.1 0-.31-.31-.31-.41 0-1.43 1.74-1.43 2.97 0 1.13 1.03 1.74 1.84 1.74 3.59 0 7.48-6.97 12.3-6.97 1.43 0 3.08.51 3.59 2.77l5.84-9.23h3.59c-4 6.77-10.35 15.78-10.35 16.91 0 .62.62 1.03 1.03 1.03 1.03 0 3.9-2.25 6.25-4.92.51-.62 1.43.31 1.13.62-3.69 4.51-6.15 6.66-8.92 6.66-1.54 0-2.36-1.33-2.66-2.66-1.33 1.23-3.18 2.46-4.92 2.46-1.94 0-3.59-1.43-3.59-4.2a6.94 6.94 0 0 1 .31-2.05c-1.43.93-3.08 1.74-4.2 1.74-1.94 0-2.77-1.43-2.77-3.49l-4.92 7.68-3.4.01h0zm24.19-11.18c-2.56 0-5.95 4.1-5.95 7.07 0 .82.82 1.84 1.54 1.84 1.94 0 4.51-2.87 5.84-5.33l-.51-.41c.21-.41.51-1.23.51-1.84.01-.61-.51-1.33-1.43-1.33h0z" fill="#fff"/></svg>