<svg xmlns="http://www.w3.org/2000/svg" baseProfile="tiny" viewBox="0 0 200 100" overflow="visible" xmlns:v="https://vecta.io/nano"><path fill-rule="evenodd" fill="#2976b7" d="M134.84 60.94c-.61 4.41-1.03 10.18-4.21 13.6-1.11 1.21-9.76 6.24-9.35 2.36 1.59-12.11 2.46-24.26 3.21-36.45l.58-15.36c.07-.87-.46-2.99.89-3.05 2.57.74 5.38 1.5 7.08 3.75 3.21 4.27 2.83 10.68 2.89 15.74.09 6.46-.21 13.01-1.09 19.41h0zm-16.93-39l-5.59 21.29c-1.45 5.14-3.1 11.76-9.38 12.41-.94.1-1.93.18-2.94.19-1.01-.01-2-.09-2.94-.19-6.27-.66-7.93-7.28-9.38-12.41-1.8-6.43-3.84-14.9-5.59-21.29-.3-1.1.15-.85 2.42-1.16 4.08-.54 10.17-.63 15.49-.58 5.32-.05 11.4.03 15.49.58 2.26.31 2.72.06 2.42 1.16h0zm-6.7 57.35c-.5.09-2.21.09-4.08.13a282.15 282.15 0 0 1-7.12.07c-2.37 0-4.75-.01-7.12-.07-1.88-.05-3.58-.04-4.08-.13-.51-.09-1.03-.12-.88-.68.15-.57 2.44-7.92 2.44-7.92 1.5-4.89 1.6-5.21 5.45-5.96 1.27-.25 2.74-.42 4.21-.42 1.47.01 2.93.17 4.21.42 3.84.75 3.95 1.07 5.45 5.96l2.44 7.92c.11.56-.41.59-.92.68h0zm-41.85-4.75c-3.17-3.42-3.59-9.2-4.21-13.6-.88-6.4-1.18-12.95-1.11-19.4.06-5.06-.32-11.47 2.89-15.74 1.69-2.26 4.51-3.01 7.08-3.75 1.35.05.82 2.19.89 3.05.07 5.12.36 10.24.58 15.36.75 12.19 1.63 24.34 3.21 36.45.43 3.87-8.21-1.16-9.33-2.37h0zm71.81-38.46c-.28-4.78-.99-9.99-4.53-13.51-3.23-3.22-7.88-4.12-12.22-4.7-8.15-1.09-16.19-1.39-24.43-1.39-8.24.01-16.27.3-24.43 1.39-4.33.58-8.99 1.48-12.22 4.7-3.54 3.53-4.24 8.74-4.53 13.51-.33 5.53-.05 11.05.3 16.58.34 5.44.96 10.92 2.28 16.22.62 2.45 1.45 4.92 2.87 7.03 1.37 2.03 3.34 3.46 5.55 4.47 4.69 2.15 10.11 2.33 15.18 2.64 4.97.31 9.98.5 14.99.52 5.01-.03 10.01-.21 14.99-.52 5.07-.32 10.49-.5 15.18-2.64 2.21-1.01 4.18-2.44 5.55-4.47 1.42-2.11 2.26-4.58 2.87-7.03 1.33-5.29 1.94-10.78 2.28-16.22.37-5.53.65-11.05.32-16.58h0z"/></svg>