<svg xmlns="http://www.w3.org/2000/svg" baseProfile="tiny" viewBox="0 0 200 100" overflow="visible" xmlns:v="https://vecta.io/nano"><path fill-rule="evenodd" fill="#005aa9" d="M100 23.27c-29.91 0-54.15 11.97-54.15 26.73S70.09 76.73 100 76.73 154.15 64.76 154.15 50 129.91 23.27 100 23.27h0zm-5.13 5.95c6.18-2.18 24.54 0 31.68 3.43 2.29 2.19-10.18 9.22-25.02 12.27-21.22 4.27-11.14-12.09-6.66-15.7h0zM58.44 60.89c-4.66-3.32-13.8-12.84 1.33-22.73 7.99-4.66 12.46-5.71 17.98-6.85 2.66-.57 4.56.1 2.19 2.1-5.04 5.23-15.5 22.54-16.46 26.35-.77 2.56-2.29 3.22-5.04 1.13h0zM102 71.92c-8.94.95-28.82-2-29.2-4.56.38-6.19 31.58-16.46 37.19-10.75 2.38 4.47-2.19 15.03-7.99 15.31h0zm45.47-17.97c-2.29 5.23-9.99 11.13-26.15 15.13-2.47.57-3.33-.95-1.72-2.38 2.66-1.61 15.5-23.11 17.12-27.39.95-2.19 2.76-1.33 3.9-.48 5.14 3.32 9.03 8.74 6.85 15.12h0z"/></svg>