<svg xmlns="http://www.w3.org/2000/svg" baseProfile="tiny" viewBox="0 0 200 100" overflow="visible" fill-rule="evenodd" fill="#231f20" xmlns:v="https://vecta.io/nano"><path d="M63.08 27.32h9.23v24.22c0 4.17-1.78 12.9-14.59 12.9s-14.19-8.14-14.19-12.7v-4.47h8.93v4.37c0 2.68 1.78 5.16 5.16 5.16s5.46-1.89 5.46-5.06V27.32h0zm92.16 40.46a2.01 2.01 0 0 0-1.43-.59 2.03 2.03 0 0 0-2.02 2.02 2.01 2.01 0 1 0 4.04 0c0-.55-.21-1.05-.59-1.43zm-1.43 3.13a1.7 1.7 0 1 1 0-3.42 1.7 1.7 0 0 1 1.71 1.71 1.71 1.71 0 0 1-1.71 1.71zm.72-1.27c-.01-.28-.03-.32-.24-.42.2-.12.29-.2.27-.42-.03-.38-.34-.42-.66-.42h-.93v1.67h.27v-.72h.68c.43 0 .32.31.34.51.01.06.02.14.06.21h.32v-.06c-.09-.06-.1-.13-.11-.35zm-.62-.51h-.67v-.58h.67c.16 0 .42.03.38.32-.02.22-.2.26-.38.26zM87.69 58.78c-2.98 0-4.66-1.69-4.66-5.75h17.17c0-12.8-6.35-15.58-13.6-15.58-8.44 0-12.21 7.74-12.21 14.39s4.27 13.1 13 13.1c7.64.1 12.71-4.86 12.71-8.53h-8.43c-.01-.01-1 2.37-3.98 2.37zM87.19 43c3.18 0 4.56 2.38 4.56 4.86h-8.73c.01-2.67 1.1-4.86 4.17-4.86zm28.09 15.78c-2.98 0-4.66-1.69-4.66-5.75h17.17c0-12.8-6.35-15.58-13.6-15.58-8.44 0-12.21 7.74-12.21 14.39s4.27 13.1 13 13.1c7.64.1 12.71-4.86 12.71-8.53h-8.43c0-.01-1 2.37-3.98 2.37zM114.79 43c3.18 0 4.56 2.38 4.56 4.86h-8.74c.01-2.67 1.1-4.86 4.18-4.86zm30.76-5.26c-4.27 0-6.35 2.38-6.45 2.68s-1.19 1.49-1.19-.59v-1.39h-8.53v34.24h8.64v-9.43c0-.69.69-.59 1.19 0s2.68 2.08 6.45 2.08c6.85 0 10.82-5.96 10.82-14.1-.01-10.51-6.66-13.49-10.93-13.49zm-2.58 21.54c-4.17 0-5.26-2.68-5.16-7.74s2.08-7.14 4.77-7.14c4.37 0 5.16 3.38 5.16 6.85-.01 3.46-.6 8.03-4.77 8.03z"/></svg>