<svg xmlns="http://www.w3.org/2000/svg" baseProfile="tiny" viewBox="0 0 200 100" overflow="visible" xmlns:v="https://vecta.io/nano"><path fill-rule="evenodd" fill="#ec1f2e" d="M109.55 42.93c-1.13-9.01-5.23-16.13-9.39-16.13-4.53 0-8.31 6.37-9.77 16.13h-.76c-8.96-1.89-13.81-4.53-13.81-7.88 0-4.86 10.47-8.63 23.64-8.63 13.49 0 24.72 3.78 24.72 8.63-.06 3.35-5.67 6.75-14.63 7.88h0zM141.77 50c0-15.33-18.35-26.98-41.98-26.98-23.2 0-41.55 11.65-41.55 26.66 0 15.38 18.35 27.3 41.98 27.3 22.77 0 41.55-11.93 41.55-26.98h0zm-38.64 23.64c4.86-4.43 7.12-12.36 7.12-23.96h0l.32-.43c11.98-1.51 20.24-6.75 20.24-12.36v-.38c3.35 3.78 4.86 7.88 4.86 12.41.05 12.73-14.19 23.64-32.54 24.72h0zM69.08 36.19c-.43.32-.43.32-.43.76 0 5.61 8.2 10.52 20.61 12.36l.32.43v.76c0 11.28 2.64 19.1 7.12 23.2-19.05-1.56-32.54-12.03-32.54-25.2.01-4.11 1.58-8.64 4.92-12.31h0zm36.69 7.44h-.43-5.18-5.67l-.76-.43c1.19-6.26 3.4-10.04 6.04-10.04 3.02 0 4.86 3.35 5.99 10.14l.01.33h0zm.76 6.37c-.32 9.07-2.97 15.38-6.37 15.38-3.78 0-6.42-6.37-6.75-15.38h.32c1.89 0 4.1.43 6.75.43 3.08 0 3.84 0 6.05-.43h0z"/></svg>